<svg viewBox="0 0 50 50" xmlns="http://www.w3.org/2000/svg" xmlns:xlink="http://www.w3.org/1999/xlink" id="GT" overflow="hidden"><defs></defs><path d="M40.59 31.62C40.59 36.57 36.58 40.59 31.62 40.59 26.66 40.59 22.65 36.58 22.65 31.62 22.65 26.66 26.66 22.65 31.62 22.65 36.58 22.65 40.59 26.66 40.59 31.62L40.59 31.62Z" stroke="#231F20" stroke-miterlimit="10" fill="none"/><line x1="37.96" y1="37.96" x2="48.44" y2="48.44" stroke="#231F20" stroke-miterlimit="10" fill="none"/><path d="M24.34 36.85C22.81 37.27 21.2 37.5 19.54 37.5 9.61 37.5 1.56 29.46 1.56 19.53 1.56 9.6 9.61 1.56 19.53 1.56 29.45 1.56 37.5 9.6 37.5 19.53 37.5 21.19 37.27 22.81 36.85 24.34" stroke="#231F20" stroke-miterlimit="10" fill="none"/><line x1="19.53" y1="1.56" x2="19.53" y2="37.5" stroke="#231F20" stroke-miterlimit="10" fill="none"/><line x1="4.83" y1="19.53" x2="34.23" y2="19.53" stroke="#231F20" stroke-miterlimit="10" fill="none"/><line x1="3.75" y1="10.94" x2="35.31" y2="10.93" stroke="#231F20" stroke-miterlimit="10" fill="none"/><line x1="3.75" y1="28.13" x2="23.36" y2="28.12" stroke="#231F20" stroke-miterlimit="10" fill="none"/><path d="M17.86 1.64C17.86 1.64 11.76 4.61 10.67 16.25 10.67 16.25 10.24 19.71 10.67 22.79 12.29 34.41 17.86 37.46 17.86 37.46" stroke="#231F20" stroke-miterlimit="10" fill="none"/><path d="M28.31 23.29C28.34 23.12 28.36 22.94 28.39 22.76 28.82 19.68 28.39 16.22 28.39 16.22 27.3 4.58 21.2 1.61 21.2 1.61" stroke="#231F20" stroke-miterlimit="10" fill="none"/></svg>