<svg viewBox="0 0 50 50" xmlns="http://www.w3.org/2000/svg" xmlns:xlink="http://www.w3.org/1999/xlink" id="GT" overflow="hidden"><defs></defs><line x1="25" y1="1.56" x2="25" y2="48.44" stroke="#231F20" stroke-miterlimit="10" fill="none"/><line x1="5.82" y1="25" x2="44.18" y2="25" stroke="#231F20" stroke-miterlimit="10" fill="none"/><line x1="4.42" y1="36.21" x2="40.17" y2="36.21" stroke="#231F20" stroke-miterlimit="10" fill="none"/><path d="M22.82 1.66C22.82 1.66 14.87 5.54 13.44 20.72 13.44 20.72 12.88 25.23 13.44 29.24 15.55 44.4 22.82 48.37 22.82 48.37" stroke="#231F20" stroke-miterlimit="10" fill="none"/><circle cx="9.38" cy="7.81" r="4.14" stroke="#231F20" stroke-miterlimit="10" fill="none"/><circle cx="44.3" cy="36.21" r="4.14" stroke="#231F20" stroke-miterlimit="10" fill="none"/><circle cx="35.26" cy="13.79" r="4.14" stroke="#231F20" stroke-miterlimit="10" fill="none"/><path d="M42.92 40.11C38.62 45.2 32.19 48.44 25 48.44 12.06 48.44 1.56 37.95 1.56 25 1.56 19.62 3.37 14.66 6.42 10.71" stroke="#231F20" stroke-miterlimit="10" fill="none"/><path d="M12.54 5.15C16.15 2.88 20.42 1.57 25 1.57 37.94 1.57 48.44 12.06 48.44 25.01 48.44 27.84 47.94 30.56 47.02 33.07" stroke="#231F20" stroke-miterlimit="10" fill="none"/><line x1="39.4" y1="13.79" x2="45.59" y2="13.79" stroke="#231F20" stroke-miterlimit="10" fill="none"/><line x1="4.41" y1="13.79" x2="31.13" y2="13.79" stroke="#231F20" stroke-miterlimit="10" fill="none"/><path d="M33.9 9.88C31.07 3.53 27.17 1.63 27.17 1.63" stroke="#231F20" stroke-miterlimit="10" fill="none"/><path d="M27.18 48.34C27.18 48.34 34.45 44.37 36.56 29.21 37.12 25.2 36.56 20.69 36.56 20.69 36.47 19.69 36.34 18.73 36.2 17.82" stroke="#231F20" stroke-miterlimit="10" fill="none"/></svg>