<svg viewBox="0 0 50 50" xmlns="http://www.w3.org/2000/svg" xmlns:xlink="http://www.w3.org/1999/xlink" id="GT" overflow="hidden"><defs></defs><line x1="26.17" y1="29.69" x2="23.83" y2="29.69" stroke="#231F20" stroke-miterlimit="10" fill="none"/><line x1="21.88" y1="29.69" x2="19.53" y2="29.69" stroke="#231F20" stroke-miterlimit="10" fill="none"/><line x1="30.47" y1="29.69" x2="28.12" y2="29.69" stroke="#231F20" stroke-miterlimit="10" fill="none"/><path d="M29.67 12.5 29.67 7.66C29.67 5.1 27.58 3.13 25 3.13L25 3.13C22.42 3.13 20.33 5.11 20.33 7.66L20.33 12.5" stroke="#231F20" stroke-miterlimit="10" fill="none"/><path d="M17.19 12.5 17.19 25 32.81 25 32.81 12.5 17.19 12.5 17.19 12.5Z" stroke="#231F20" stroke-miterlimit="10" fill="none"/><path d="M29.45 6.25 48.44 6.25 48.44 37.5 1.56 37.5 1.56 6.25 20.56 6.25" stroke="#231F20" stroke-miterlimit="10" fill="none"/><line x1="25" y1="37.5" x2="25" y2="43.75" stroke="#231F20" stroke-miterlimit="10" fill="none"/><line x1="17.19" y1="46.88" x2="32.81" y2="46.88" stroke="#231F20" stroke-miterlimit="10" fill="none"/></svg>