<svg viewBox="0 0 50 50" xmlns="http://www.w3.org/2000/svg" xmlns:xlink="http://www.w3.org/1999/xlink" id="GT" overflow="hidden"><defs></defs><path d="M36.72 17.97 31.25 34.38 46.88 34.38 41.41 17.97" stroke="#231F20" fill="none"/><line x1="42.97" y1="34.38" x2="42.97" y2="48.44" stroke="#231F20" fill="none"/><line x1="35.16" y1="34.38" x2="35.16" y2="48.44" stroke="#231F20" fill="none"/><path d="M48.44 28.12 42.97 13.28 35.16 13.28 29.69 28.12" stroke="#231F20" fill="none"/><line x1="16.41" y1="25.78" x2="16.41" y2="48.44" stroke="#231F20" fill="none"/><line x1="8.59" y1="25.78" x2="8.59" y2="48.44" stroke="#231F20" fill="none"/><path d="M23.44 29.69 16.41 13.28 8.59 13.28 1.56 29.69" stroke="#231F20" fill="none"/><path d="M16.8 5.86C16.8 8.23 14.88 10.16 12.5 10.16 10.12 10.16 8.2 8.24 8.2 5.86 8.2 3.48 10.12 1.56 12.5 1.56 14.88 1.56 16.8 3.48 16.8 5.86L16.8 5.86Z" stroke="#231F20" fill="none"/><path d="M43.36 5.86C43.36 8.23 41.44 10.16 39.06 10.16 36.68 10.16 34.76 8.24 34.76 5.86 34.76 3.48 36.68 1.56 39.06 1.56 41.44 1.56 43.36 3.48 43.36 5.86L43.36 5.86Z" stroke="#231F20" fill="none"/></svg>