<svg viewBox="0 0 50 50" xmlns="http://www.w3.org/2000/svg" xmlns:xlink="http://www.w3.org/1999/xlink" id="GT" overflow="hidden"><defs></defs><path d="M39.42 17.79 37.62 19.59 35.82 17.79M14.18 12.38 12.38 10.58 10.58 12.38M14.74 31.27 12.39 30.41 11.66 32.75M35.83 37.62 37.63 39.42 39.43 37.62M34.02 41.23 41.23 48.44M34.02 48.44 41.23 41.23M37.62 21.4C35.63 21.4 34.01 23.01 34.01 25.01 34.01 27.01 35.62 28.62 37.62 28.62 39.62 28.62 41.23 27.01 41.23 25.01 41.23 23.01 39.62 21.4 37.62 21.4ZM8.77 8.77 15.99 1.56M8.78 1.56 15.99 8.77M15.99 25C15.99 23.01 14.38 21.39 12.38 21.39 10.38 21.39 8.77 23 8.77 25 8.77 27 10.38 28.61 12.38 28.61 14.38 28.61 15.99 27 15.99 25ZM12.38 19.59 12.38 10.58M19.59 25 30.41 25M12.38 30.41 19.6 44.83 32.22 44.83M37.63 30.41 37.63 39.42M37.63 19.59 37.63 19.59C37.63 11.65 31.19 5.17 23.25 5.17L17.8 5.17" stroke="#231F20" stroke-miterlimit="10" fill="none"/></svg>