<svg viewBox="0 0 50 50" xmlns="http://www.w3.org/2000/svg" xmlns:xlink="http://www.w3.org/1999/xlink" id="GT" overflow="hidden"><defs></defs><path d="M1.56 46.09 1.56 18.75 31.25 18.75 31.25 46.09" stroke="#231F20" stroke-miterlimit="22.93" fill="none" fill-rule="evenodd"/><line x1="3.12" y1="1.56" x2="8.5" y2="1.56" stroke="#231F20" stroke-miterlimit="22.93" fill="none"/><line x1="10.8" y1="1.56" x2="16.17" y2="1.56" stroke="#231F20" stroke-miterlimit="22.93" fill="none"/><line x1="18.48" y1="1.56" x2="23.85" y2="1.56" stroke="#231F20" stroke-miterlimit="22.93" fill="none"/><line x1="26.15" y1="1.56" x2="31.52" y2="1.56" stroke="#231F20" stroke-miterlimit="22.93" fill="none"/><line x1="33.83" y1="1.56" x2="39.2" y2="1.56" stroke="#231F20" stroke-miterlimit="22.93" fill="none"/><line x1="41.5" y1="1.56" x2="46.87" y2="1.56" stroke="#231F20" stroke-miterlimit="22.93" fill="none"/><line x1="48.44" y1="3.13" x2="48.44" y2="8.5" stroke="#231F20" stroke-miterlimit="22.93" fill="none"/><line x1="48.44" y1="10.8" x2="48.44" y2="16.17" stroke="#231F20" stroke-miterlimit="22.93" fill="none"/><line x1="48.44" y1="18.48" x2="48.44" y2="23.85" stroke="#231F20" stroke-miterlimit="22.93" fill="none"/><line x1="48.44" y1="26.15" x2="48.44" y2="31.52" stroke="#231F20" stroke-miterlimit="22.93" fill="none"/><line x1="48.44" y1="33.83" x2="48.44" y2="39.2" stroke="#231F20" stroke-miterlimit="22.93" fill="none"/><line x1="48.44" y1="41.5" x2="48.44" y2="46.88" stroke="#231F20" stroke-miterlimit="22.93" fill="none"/><line x1="1.56" y1="3.13" x2="1.56" y2="8.5" stroke="#231F20" stroke-miterlimit="22.93" fill="none"/><line x1="1.56" y1="10.8" x2="1.56" y2="16.17" stroke="#231F20" stroke-miterlimit="22.93" fill="none"/><line x1="1.56" y1="48.44" x2="31.25" y2="48.44" stroke="#231F20" stroke-miterlimit="22.93" fill="none"/><line x1="33.83" y1="48.44" x2="39.2" y2="48.44" stroke="#231F20" stroke-miterlimit="22.93" fill="none"/><line x1="41.5" y1="48.44" x2="46.87" y2="48.44" stroke="#231F20" stroke-miterlimit="22.93" fill="none"/></svg>