<svg viewBox="0 0 50 50" xmlns="http://www.w3.org/2000/svg" xmlns:xlink="http://www.w3.org/1999/xlink" id="GT" overflow="hidden"><defs></defs><rect x="1.56" y="1.56" width="46.87" height="12.5" stroke="#231F20" stroke-miterlimit="10" fill="none"/><rect x="1.56" y="18.75" width="46.87" height="12.5" stroke="#231F20" stroke-miterlimit="10" fill="none"/><path d="M1.56 48.44 1.56 35.94 48.44 35.94 48.44 48.44" stroke="#231F20" stroke-miterlimit="10" fill="none"/><line x1="6.25" y1="14.06" x2="6.25" y2="18.75" stroke="#231F20" stroke-miterlimit="10" fill="none"/><line x1="6.25" y1="31.25" x2="6.25" y2="35.94" stroke="#231F20" stroke-miterlimit="10" fill="none"/><line x1="43.75" y1="14.06" x2="43.75" y2="18.75" stroke="#231F20" stroke-miterlimit="10" fill="none"/><line x1="43.75" y1="31.25" x2="43.75" y2="35.94" stroke="#231F20" stroke-miterlimit="10" fill="none"/><circle cx="10.16" cy="7.81" r="2.34" stroke="#231F20" stroke-miterlimit="10" fill="none"/><circle cx="17.97" cy="7.81" r="2.34" stroke="#231F20" stroke-miterlimit="10" fill="none"/><circle cx="10.16" cy="25" r="2.34" stroke="#231F20" stroke-miterlimit="10" fill="none"/><circle cx="17.97" cy="25" r="2.34" stroke="#231F20" stroke-miterlimit="10" fill="none"/><circle cx="10.16" cy="42.19" r="2.34" stroke="#231F20" stroke-miterlimit="10" fill="none"/><circle cx="17.97" cy="42.19" r="2.34" stroke="#231F20" stroke-miterlimit="10" fill="none"/><line x1="28.12" y1="7.81" x2="43.75" y2="7.81" stroke="#231F20" stroke-miterlimit="10" fill="none"/><line x1="28.12" y1="25" x2="43.75" y2="25" stroke="#231F20" stroke-miterlimit="10" fill="none"/><line x1="28.12" y1="42.19" x2="43.75" y2="42.19" stroke="#231F20" stroke-miterlimit="10" fill="none"/><line x1="4.69" y1="48.44" x2="45.31" y2="48.44" stroke="#231F20" stroke-miterlimit="10" fill="none"/></svg>