<svg viewBox="0 0 50 50" xmlns="http://www.w3.org/2000/svg" xmlns:xlink="http://www.w3.org/1999/xlink" id="GT" overflow="hidden"><defs></defs><path d="M46.95 19.22 36.76 36.87 26.57 19.22C25.57 17.49 24.99 15.48 24.99 13.33 24.99 6.83 30.26 1.56 36.76 1.56 43.26 1.56 48.53 6.83 48.53 13.33 48.53 15.48 47.95 17.49 46.95 19.22Z" stroke="#231F20" stroke-miterlimit="10" fill="none"/><circle cx="36.77" cy="13.12" r="5.14" stroke="#231F20" stroke-miterlimit="10" fill="none"/><path d="M5.22 19.86C5.22 19.86 16.05 20.98 15.95 24.43 15.85 27.88 9.85 30.91 18.14 35.98 26.75 41.24 41.23 41.81 41.23 41.81" stroke="#231F20" stroke-miterlimit="22.93" fill="none"/><line x1="45.31" y1="22.06" x2="45.31" y2="45.31" stroke="#231F20" stroke-miterlimit="10" fill="none"/><path d="M1.56 45.31 1.56 10.94 25.24 10.94" stroke="#231F20" stroke-miterlimit="10" fill="none"/><line x1="1.56" y1="48.44" x2="45.31" y2="48.44" stroke="#231F20" stroke-miterlimit="10" fill="none"/></svg>