<svg viewBox="0 0 50 50" xmlns="http://www.w3.org/2000/svg" xmlns:xlink="http://www.w3.org/1999/xlink" id="GT" overflow="hidden"><defs></defs><path d="M10.92 29.41C10.92 29.41 6.99 24.18 6.29 20.24 5.59 16.25 9.39 13.79 14.2 12.95 18.42 12.21 21.76 13.92 21.67 17.94 21.64 19.27 10.91 29.42 10.91 29.42Z" stroke="#231F20" stroke-miterlimit="10" fill="none"/><ellipse cx="19.44" cy="6.44" rx="4.1" ry="3.08" stroke="#231F20" stroke-miterlimit="10" fill="none" transform="matrix(0.072716 -0.997353 0.997353 0.072716 11.61 25.36)"/><ellipse cx="13.32" cy="6.59" rx="2.36" ry="3.14" stroke="#231F20" stroke-miterlimit="10" fill="none" transform="matrix(0.985556 -0.16935 0.16935 0.985556 -0.92 2.35)"/><ellipse cx="8.79" cy="8.35" rx="2.04" ry="2.72" stroke="#231F20" stroke-miterlimit="10" fill="none" transform="matrix(0.923813 -0.382845 0.382845 0.923813 -2.53 4)"/><ellipse cx="5.46" cy="11.22" rx="1.79" ry="2.38" stroke="#231F20" stroke-miterlimit="10" fill="none" transform="matrix(0.850444 -0.526066 0.526066 0.850444 -5.08 4.55)"/><ellipse cx="3.48" cy="14.93" rx="1.65" ry="2.2" stroke="#231F20" stroke-miterlimit="10" fill="none" transform="matrix(0.743495 -0.668741 0.668741 0.743495 -9.09 6.15)"/><path d="M14.77 25.65C15.56 30.14 23.21 37.69 23.89 41.57 24.4 44.45 21.62 47.22 18.59 47.61 15.56 47.99 12.31 46.23 11.81 43.35 11.19 39.82 10.92 29.42 10.92 29.42" stroke="#231F20" stroke-miterlimit="10" fill="none"/><path d="M39.08 29.41C39.08 29.41 43.01 24.18 43.71 20.24 44.41 16.3 40.61 13.79 35.8 12.95 31.58 12.21 28.24 13.92 28.33 17.94 28.36 19.27 39.09 29.42 39.09 29.42Z" stroke="#231F20" stroke-miterlimit="10" fill="none"/><ellipse cx="30.56" cy="6.44" rx="3.08" ry="4.1" stroke="#231F20" stroke-miterlimit="10" fill="none" transform="matrix(0.997353 -0.072716 0.072716 0.997353 -0.39 2.24)"/><ellipse cx="36.68" cy="6.59" rx="3.14" ry="2.36" stroke="#231F20" stroke-miterlimit="10" fill="none" transform="matrix(0.16935 -0.985556 0.985556 0.16935 23.97 41.62)"/><ellipse cx="41.21" cy="8.35" rx="2.72" ry="2.04" stroke="#231F20" stroke-miterlimit="10" fill="none" transform="matrix(0.382845 -0.923813 0.923813 0.382845 17.72 43.23)"/><ellipse cx="44.54" cy="11.22" rx="2.38" ry="1.79" stroke="#231F20" stroke-miterlimit="10" fill="none" transform="matrix(0.526066 -0.850444 0.850444 0.526066 11.57 43.2)"/><ellipse cx="46.52" cy="14.93" rx="2.2" ry="1.65" stroke="#231F20" stroke-miterlimit="10" fill="none" transform="matrix(0.668741 -0.743495 0.743495 0.668741 4.31 39.54)"/><path d="M35.23 25.65C34.44 30.14 26.79 37.69 26.11 41.57 25.6 44.45 28.38 47.22 31.41 47.61 34.44 47.99 37.69 46.23 38.19 43.35 38.81 39.82 39.08 29.42 39.08 29.42" stroke="#231F20" stroke-miterlimit="10" fill="none"/></svg>