<svg viewBox="0 0 50 50" xmlns="http://www.w3.org/2000/svg" xmlns:xlink="http://www.w3.org/1999/xlink" id="GT" overflow="hidden"><defs></defs><path d="M45.31 42.97C46.98 42.97 48.44 41.51 48.44 39.85L48.44 14.74C48.44 13.07 47.09 11.72 45.42 11.72L34.37 11.72 32.81 7.03 17.19 7.03 15.63 11.72 4.58 11.72C2.91 11.72 1.56 13.07 1.56 14.74L1.56 39.85C1.56 41.52 3.02 42.97 4.68 42.97" stroke="#231F20" fill="none"/><rect x="37.5" y="15.62" width="7.03" height="3.13" stroke="#231F20" fill="none"/><circle cx="25" cy="27.34" r="10.94" stroke="#231F20" fill="none"/><path d="M17.19 27.34C17.19 23.03 20.69 19.53 25 19.53" stroke="#231F20" fill="none"/><line x1="4.69" y1="9.36" x2="10.16" y2="9.36" stroke="#231F20" fill="none"/><line x1="7.81" y1="42.97" x2="42.19" y2="42.97" stroke="#231F20" fill="none"/><line x1="4.69" y1="16.41" x2="12.5" y2="16.41" stroke="#231F20" fill="none"/></svg>