<svg viewBox="0 0 50 50" xmlns="http://www.w3.org/2000/svg" xmlns:xlink="http://www.w3.org/1999/xlink" id="GT" overflow="hidden"><defs></defs><path d="M25 5.47C23.92 5.47 23.05 6.34 23.05 7.42 23.05 8.5 23.92 9.37 25 9.37 26.08 9.37 26.95 8.5 26.95 7.42 26.95 6.34 26.08 5.47 25 5.47L25 5.47Z" stroke="#231F20" stroke-miterlimit="10" fill="none"/><line x1="17.19" y1="44.53" x2="32.81" y2="44.53" stroke="#231F20" stroke-miterlimit="10" fill="none"/><path d="M32.97 48.44 17.04 48.44C14.97 48.44 13.28 46.77 13.28 44.69L13.28 5.32C13.28 3.25 14.96 1.56 17.03 1.56L32.96 1.56C35.03 1.56 36.71 3.24 36.71 5.32L36.71 44.69C36.71 46.76 35.04 48.44 32.96 48.44L32.96 48.44Z" stroke="#231F20" stroke-miterlimit="10" fill="none"/></svg>