<svg viewBox="0 0 50 50" xmlns="http://www.w3.org/2000/svg" xmlns:xlink="http://www.w3.org/1999/xlink" id="GT" overflow="hidden"><defs></defs><line x1="20.95" y1="16.32" x2="30.21" y2="7.06" stroke="#231F20" stroke-miterlimit="10" fill="none"/><path d="M19.79 24.42 22.9 27.53C26.3 30.93 32.06 30.67 35.77 26.96L45.48 17.25C49.19 13.54 49.44 7.78 46.05 4.38L45.62 3.95C42.22 0.55 36.46 0.81 32.75 4.52L32.44 4.83" stroke="#231F20" stroke-miterlimit="10" fill="none"/><line x1="29.05" y1="33.68" x2="19.79" y2="42.94" stroke="#231F20" stroke-miterlimit="10" fill="none"/><path d="M30.21 25.58 27.1 22.47C23.7 19.07 17.94 19.33 14.23 23.04L4.52 32.75C0.81 36.46 0.56 42.22 3.95 45.62L4.38 46.05C7.78 49.45 13.54 49.19 17.25 45.48L17.56 45.17" stroke="#231F20" stroke-miterlimit="10" fill="none"/></svg>