<svg viewBox="0 0 50 50" xmlns="http://www.w3.org/2000/svg" xmlns:xlink="http://www.w3.org/1999/xlink" id="GT" overflow="hidden"><defs></defs><path d="M27.97 20.47 32.81 15.62 37.65 20.47" stroke="#231F20" fill="none"/><path d="M32.81 15.62 32.81 23.44 20.25 33.51" stroke="#231F20" stroke-miterlimit="22.93" fill="none"/><line x1="10.94" y1="48.44" x2="39.06" y2="48.44" stroke="#231F20" fill="none"/><line x1="21.09" y1="17.97" x2="13.28" y2="25.78" stroke="#231F20" stroke-miterlimit="22.93" fill="none"/><line x1="21.09" y1="25.78" x2="13.28" y2="17.97" stroke="#231F20" stroke-miterlimit="22.93" fill="none"/><line x1="36.72" y1="33.59" x2="28.91" y2="41.41" stroke="#231F20" stroke-miterlimit="22.93" fill="none"/><line x1="36.72" y1="41.41" x2="28.91" y2="33.59" stroke="#231F20" stroke-miterlimit="22.93" fill="none"/><path d="M20.31 4.64 15.62 4.64 15.62 10.94 34.38 10.94 34.38 4.64 29.69 4.64 29.69 1.56 20.31 1.56 20.31 4.64Z" stroke="#231F20" stroke-miterlimit="10" fill="none"/><line x1="23.44" y1="4.69" x2="26.56" y2="4.69" stroke="#231F20" stroke-miterlimit="10" fill="none"/><path d="M42.19 48.44 42.19 7.81 34.41 7.81" stroke="#231F20" stroke-miterlimit="10" fill="none"/><path d="M15.59 7.81 7.81 7.81 7.81 48.44" stroke="#231F20" stroke-miterlimit="10" fill="none"/><circle cx="17.19" cy="35.94" r="3.91" stroke="#231F20" stroke-miterlimit="10" fill="none"/></svg>