<svg viewBox="0 0 50 50" xmlns="http://www.w3.org/2000/svg" xmlns:xlink="http://www.w3.org/1999/xlink" id="GT" overflow="hidden"><defs></defs><path d="M23.33 19.98 16.63 9.94 21.65 9.94 33.37 19.98M23.33 26.68 14.96 40.07 19.98 40.07 33.37 26.68M31.7 28.35 45.93 28.35C47.34 28.35 48.48 27.18 48.44 25.76 48.4 24.34 47.2 23.33 45.82 23.33L45.09 23.33C45.09 23.33 45.09 22.49 45.09 22.49 45.09 21.1 43.97 19.98 42.58 19.98L11.61 19.98 5.19 14.96 1.56 14.96 6.72 25.06C7.75 27.08 9.83 28.35 12.1 28.35L22.27 28.35M14.94 23.33 18.29 23.33M23.31 23.33 19.96 23.33M24.98 23.33 28.33 23.33M33.35 23.33 30 23.33M35.02 23.33 38.37 23.33" stroke="#231F20" stroke-miterlimit="10" fill="none"/></svg>