<svg viewBox="0 0 50 50" xmlns="http://www.w3.org/2000/svg" xmlns:xlink="http://www.w3.org/1999/xlink" id="GT" overflow="hidden"><defs></defs><line x1="25" y1="46.09" x2="25" y2="38.28" stroke="#231F20" stroke-miterlimit="10" fill="none"/><path d="M12.5 15.62 12.5 26.05C12.5 32.8 18.1 38.28 25 38.28L25 38.28C31.9 38.28 37.5 32.81 37.5 26.05L37.5 15.62" stroke="#231F20" stroke-miterlimit="10" fill="none"/><path d="M25 1.56 25 1.56C20.47 1.56 16.8 5.23 16.8 9.76L16.8 26.17C16.8 30.7 20.47 34.37 25 34.37L25 34.37C29.53 34.37 33.2 30.7 33.2 26.17L33.2 9.77C33.2 5.24 29.53 1.57 25 1.57L25 1.57Z" stroke="#231F20" stroke-miterlimit="10" fill="none"/><line x1="17.19" y1="48.44" x2="32.81" y2="48.44" stroke="#231F20" stroke-miterlimit="10" fill="none"/></svg>