<svg viewBox="0 0 50 50" xmlns="http://www.w3.org/2000/svg" xmlns:xlink="http://www.w3.org/1999/xlink" id="GT" overflow="hidden"><defs></defs><path d="M32.81 1.56C40.58 1.56 46.87 7.86 46.87 15.62" stroke="#231F20" fill="none"/><path d="M42.55 15.62C42.55 10.24 38.19 5.88 32.81 5.88" stroke="#231F20" fill="none"/><path d="M38.22 15.62C38.22 12.63 35.8 10.21 32.81 10.21" stroke="#231F20" fill="none"/><path d="M39.06 31.81 16.63 9.38C12.93 12.31 10.55 16.83 10.55 21.92 10.55 30.74 17.7 37.9 26.53 37.9 31.61 37.9 36.14 35.52 39.07 31.82Z" stroke="#231F20" fill="none"/><line x1="27.71" y1="20.45" x2="32.62" y2="15.54" stroke="#231F20" fill="none"/><line x1="14.66" y1="32.86" x2="7.87" y2="46.09" stroke="#231F20" fill="none"/><line x1="3.12" y1="48.44" x2="25" y2="48.44" stroke="#231F20" fill="none"/><line x1="21.39" y1="46.09" x2="14.66" y2="32.86" stroke="#231F20" fill="none"/></svg>