<svg viewBox="0 0 50 50" xmlns="http://www.w3.org/2000/svg" xmlns:xlink="http://www.w3.org/1999/xlink" id="GT" overflow="hidden"><defs></defs><path d="M43.75 43.75 43.75 23.47 37.5 17.19 32.81 17.19" stroke="#231F20" fill="none"/><line x1="40.62" y1="24.22" x2="21.88" y2="24.22" stroke="#231F20" fill="none"/><path d="M28.12 9.38C28.12 11.11 26.72 12.5 25 12.5 23.28 12.5 21.88 11.1 21.88 9.38 21.88 7.66 23.28 6.25 25 6.25 26.72 6.25 28.12 7.65 28.12 9.38L28.12 9.38Z" stroke="#231F20" fill="none"/><path d="M7.81 29.69C7.81 31.42 6.41 32.81 4.69 32.81 2.97 32.81 1.57 31.41 1.57 29.69 1.57 27.97 2.97 26.56 4.69 26.56 6.41 26.56 7.81 27.96 7.81 29.69L7.81 29.69Z" stroke="#231F20" fill="none"/><path d="M32.81 17.19C32.81 18.92 31.41 20.31 29.69 20.31 27.97 20.31 26.57 18.91 26.57 17.19 26.57 15.47 27.97 14.06 29.69 14.06 31.41 14.06 32.81 15.46 32.81 17.19L32.81 17.19Z" stroke="#231F20" fill="none"/><path d="M37.5 31.25C37.5 32.98 36.1 34.37 34.38 34.37 32.66 34.37 31.26 32.97 31.26 31.25 31.26 29.53 32.66 28.12 34.38 28.12 36.1 28.12 37.5 29.52 37.5 31.25L37.5 31.25Z" stroke="#231F20" fill="none"/><path d="M26.56 32.81C26.56 34.54 25.16 35.93 23.44 35.93 21.72 35.93 20.32 34.53 20.32 32.81 20.32 31.09 21.72 29.68 23.44 29.68 25.16 29.68 26.56 31.08 26.56 32.81L26.56 32.81Z" stroke="#231F20" fill="none"/><path d="M15.62 17.19C15.62 18.92 14.22 20.31 12.5 20.31 10.78 20.31 9.38 18.91 9.38 17.19 9.38 15.47 10.78 14.06 12.5 14.06 14.22 14.06 15.62 15.46 15.62 17.19L15.62 17.19Z" stroke="#231F20" fill="none"/><path d="M25.65 35.02 29.69 39.06 40.62 39.06 40.62 31.25 37.5 31.25" stroke="#231F20" fill="none"/><line x1="18.75" y1="23.44" x2="14.71" y2="19.4" stroke="#231F20" fill="none"/><path d="M6.9 31.89 10.94 35.94 15.62 35.94 23.44 43.75 48.44 43.75 48.44 15.62 42.19 9.38 28.12 9.38" stroke="#231F20" fill="none"/></svg>