<svg viewBox="0 0 50 50" xmlns="http://www.w3.org/2000/svg" xmlns:xlink="http://www.w3.org/1999/xlink" id="GT" overflow="hidden"><defs></defs><path d="M30.87 38.29C29.14 37.29 27.14 36.72 25 36.72 22.86 36.72 20.86 37.29 19.13 38.29L25 48.44 30.87 38.29Z" stroke="#231F20" stroke-miterlimit="10" fill="none"/><path d="M36.73 28.14C33.28 26.14 29.27 25 25 25 20.73 25 16.72 26.14 13.27 28.14" stroke="#231F20" stroke-miterlimit="10" fill="none"/><path d="M42.6 18C37.42 15 31.41 13.28 25 13.28 18.59 13.28 12.57 15 7.4 18" stroke="#231F20" stroke-miterlimit="10" fill="none"/><path d="M48.47 7.85C41.57 3.85 33.55 1.56 25 1.56 16.45 1.56 8.43 3.85 1.53 7.85" stroke="#231F20" stroke-miterlimit="10" fill="none"/></svg>