<svg viewBox="0 0 50 50" xmlns="http://www.w3.org/2000/svg" xmlns:xlink="http://www.w3.org/1999/xlink" id="GT" overflow="hidden"><defs></defs><path d="M7.81 42.19 7.81 7.81 42.19 7.81 42.19 42.19" stroke="#231F20" stroke-miterlimit="10" fill="none"/><line x1="39.06" y1="42.19" x2="10.94" y2="42.19" stroke="#231F20" stroke-miterlimit="10" fill="none"/><line x1="15.62" y1="1.56" x2="15.62" y2="7.81" stroke="#231F20" stroke-miterlimit="10" fill="none"/><line x1="21.88" y1="1.56" x2="21.88" y2="7.81" stroke="#231F20" stroke-miterlimit="10" fill="none"/><line x1="28.12" y1="1.56" x2="28.12" y2="7.81" stroke="#231F20" stroke-miterlimit="10" fill="none"/><line x1="34.38" y1="1.56" x2="34.38" y2="7.81" stroke="#231F20" stroke-miterlimit="10" fill="none"/><line x1="15.62" y1="42.19" x2="15.62" y2="48.44" stroke="#231F20" stroke-miterlimit="10" fill="none"/><line x1="21.88" y1="42.19" x2="21.88" y2="48.44" stroke="#231F20" stroke-miterlimit="10" fill="none"/><line x1="28.12" y1="42.19" x2="28.12" y2="48.44" stroke="#231F20" stroke-miterlimit="10" fill="none"/><line x1="34.38" y1="42.19" x2="34.38" y2="48.44" stroke="#231F20" stroke-miterlimit="10" fill="none"/><line x1="42.19" y1="34.37" x2="48.44" y2="34.38" stroke="#231F20" stroke-miterlimit="10" fill="none"/><line x1="42.19" y1="28.12" x2="48.44" y2="28.13" stroke="#231F20" stroke-miterlimit="10" fill="none"/><line x1="42.19" y1="21.87" x2="48.44" y2="21.88" stroke="#231F20" stroke-miterlimit="10" fill="none"/><line x1="42.19" y1="15.62" x2="48.44" y2="15.63" stroke="#231F20" stroke-miterlimit="10" fill="none"/><line x1="1.56" y1="34.37" x2="7.81" y2="34.38" stroke="#231F20" stroke-miterlimit="10" fill="none"/><line x1="1.56" y1="28.12" x2="7.81" y2="28.13" stroke="#231F20" stroke-miterlimit="10" fill="none"/><line x1="1.56" y1="21.87" x2="7.81" y2="21.88" stroke="#231F20" stroke-miterlimit="10" fill="none"/><line x1="1.56" y1="15.62" x2="7.81" y2="15.63" stroke="#231F20" stroke-miterlimit="10" fill="none"/><rect x="14.06" y="14.06" width="21.87" height="21.88" stroke="#231F20" stroke-miterlimit="10" fill="none" transform="matrix(6.12323e-17 1 -1 6.12323e-17 50 0)"/></svg>