<svg viewBox="0 0 50 50" xmlns="http://www.w3.org/2000/svg" xmlns:xlink="http://www.w3.org/1999/xlink" id="GT" overflow="hidden"><defs></defs><path d="M3.24 18.3 13.28 18.3M3.24 21.65 9.94 21.65M6.59 25 8.26 24.98M1.56 14.95 9.93 14.95M14.95 14.95 19.97 14.95M14.95 11.6 18.3 11.6M23.32 14.95 27.31 14.95M29.06 14.95 46.76 14.95M23.32 18.3 43.41 18.3M28.34 21.65 42.55 21.65M20.02 21.65 26.66 21.65M19.96 24.98 28.33 25M24.98 28.35 29.16 28.35M24.98 31.69 28.33 31.69M24.98 35.05 26.65 35.05M30 31.7 31.67 31.7M35.02 25 36.69 25M40.04 25 41.71 25M41.71 28.35 43.38 28.35M46.73 28.35 48.4 28.35M41.7 31.7 48.4 31.7M45.05 35.05 46.72 35.05M8.22 28.35 16.59 28.35M9.89 24.98 11.56 25M10.96 31.7 14.9 31.7M10.96 35.05 13.23 35.05M11.56 38.4 13.23 38.4" stroke="#231F20" stroke-miterlimit="10" fill="none"/></svg>