<svg viewBox="0 0 50 50" xmlns="http://www.w3.org/2000/svg" xmlns:xlink="http://www.w3.org/1999/xlink" id="GT" overflow="hidden"><defs></defs><line x1="33.95" y1="1.56" x2="33.95" y2="48.44" stroke="#231F20" stroke-miterlimit="10" fill="none"/><path d="M38.21 1.56 38.21 17.19 29.69 17.19 29.69 1.56" stroke="#231F20" stroke-miterlimit="10" fill="none"/><path d="M41.46 48.44 41.46 1.56C41.46 1.56 48.43 4.93 48.43 11.27L48.43 26.67 41.46 26.67" stroke="#231F20" stroke-miterlimit="10" fill="none"/><path d="M1.63 20.81C14.11 20.81 16.84 10.37 26.49 20.81" stroke="#231F20" stroke-miterlimit="10" fill="none"/><path d="M16.61 29.69C20.3 29.69 26.56 26.48 26.56 19.47 26.56 11.04 20.31 1.57 20.31 1.57L7.81 1.57C7.81 1.57 1.56 11.03 1.56 19.47 1.56 26.48 7.82 29.69 11.51 29.69L16.61 29.69Z" stroke="#231F20" stroke-miterlimit="10" fill="none"/><line x1="14.06" y1="45.31" x2="14.06" y2="29.69" stroke="#231F20" stroke-miterlimit="10" fill="none"/><line x1="6.25" y1="48.44" x2="21.88" y2="48.44" stroke="#231F20" stroke-miterlimit="10" fill="none"/></svg>