<svg viewBox="0 0 50 50" xmlns="http://www.w3.org/2000/svg" xmlns:xlink="http://www.w3.org/1999/xlink" id="GT" overflow="hidden"><defs></defs><rect x="1.56" y="4.69" width="46.88" height="31.25" stroke="#231F20" stroke-miterlimit="10" fill="none"/><line x1="25" y1="35.94" x2="25" y2="42.19" stroke="#231F20" stroke-miterlimit="10" fill="none"/><line x1="17.19" y1="45.31" x2="32.81" y2="45.31" stroke="#231F20" stroke-miterlimit="10" fill="none"/><path d="M4.77 31.92 7.64 27.89 8.6 29.01 10.99 25.95 12.42 32.08 15.61 28.05 18.63 31.75 20.23 29.34" stroke="#231F20" stroke-miterlimit="10" fill="none"/><line x1="25.53" y1="13.73" x2="25.53" y2="21.88" stroke="#231F20" stroke-miterlimit="10" fill="none"/><line x1="28.35" y1="7.81" x2="28.35" y2="21.88" stroke="#231F20" stroke-miterlimit="10" fill="none"/><line x1="31.18" y1="10.45" x2="31.18" y2="21.88" stroke="#231F20" stroke-miterlimit="10" fill="none"/><line x1="34.01" y1="11.37" x2="34.01" y2="21.88" stroke="#231F20" stroke-miterlimit="10" fill="none"/><line x1="36.83" y1="16.15" x2="36.83" y2="21.88" stroke="#231F20" stroke-miterlimit="10" fill="none"/><line x1="39.66" y1="17.1" x2="39.66" y2="21.88" stroke="#231F20" stroke-miterlimit="10" fill="none"/><line x1="42.49" y1="18.93" x2="42.49" y2="21.88" stroke="#231F20" stroke-miterlimit="10" fill="none"/><line x1="45.31" y1="19.94" x2="45.31" y2="21.88" stroke="#231F20" stroke-miterlimit="10" fill="none"/><path d="M19.56 14.84C19.56 18.73 16.4 21.88 12.5 21.88 8.6 21.88 5.44 18.73 5.44 14.84 5.44 10.95 8.6 7.8 12.5 7.8 16.4 7.8 19.56 10.95 19.56 14.84L19.56 14.84Z" stroke="#231F20" stroke-miterlimit="10" fill="none"/><line x1="5.74" y1="13.11" x2="9.2" y2="14.04" stroke="#231F20" stroke-miterlimit="10" fill="none"/><line x1="6.45" y1="18.49" x2="9.55" y2="16.7" stroke="#231F20" stroke-miterlimit="10" fill="none"/><line x1="9.05" y1="21.08" x2="10.83" y2="17.98" stroke="#231F20" stroke-miterlimit="10" fill="none"/><path d="M12.5 11.45 12.5 10.19 12.5 7.86" stroke="#231F20" stroke-miterlimit="10" fill="none"/><path d="M16.01 14.84C16.01 16.77 14.44 18.34 12.5 18.34 10.56 18.34 8.99 16.77 8.99 14.84 8.99 12.91 10.56 11.34 12.5 11.34 14.44 11.34 16.01 12.91 16.01 14.84L16.01 14.84Z" stroke="#231F20" stroke-miterlimit="10" fill="none"/><line x1="25" y1="32.67" x2="34.2" y2="32.67" stroke="#231F20" stroke-miterlimit="10" fill="none"/><line x1="25" y1="30.43" x2="42.86" y2="30.43" stroke="#231F20" stroke-miterlimit="10" fill="none"/><line x1="25" y1="28.19" x2="34.2" y2="28.19" stroke="#231F20" stroke-miterlimit="10" fill="none"/><line x1="25" y1="25.95" x2="35.36" y2="25.95" stroke="#231F20" stroke-miterlimit="10" fill="none"/></svg>