<svg viewBox="0 0 50 50" xmlns="http://www.w3.org/2000/svg" xmlns:xlink="http://www.w3.org/1999/xlink" id="GT" overflow="hidden"><defs></defs><path d="M29.69 6.25 48.44 6.25 48.44 37.5 1.56 37.5 1.56 6.25 20.31 6.25" stroke="#231F20" stroke-miterlimit="10" fill="none"/><line x1="25" y1="37.5" x2="25" y2="43.75" stroke="#231F20" stroke-miterlimit="10" fill="none"/><line x1="17.19" y1="46.88" x2="32.81" y2="46.88" stroke="#231F20" stroke-miterlimit="10" fill="none"/><path d="M21.45 10.22C21.45 8.26 23.04 6.67 25 6.67 26.96 6.67 28.55 8.26 28.55 10.22" stroke="#231F20" stroke-miterlimit="10" fill="none"/><path d="M21.45 3.12C21.45 5.08 23.04 6.67 25 6.67 26.96 6.67 28.55 5.08 28.55 3.12" stroke="#231F20" stroke-miterlimit="10" fill="none"/><line x1="25" y1="10.22" x2="25" y2="22.49" stroke="#231F20" stroke-miterlimit="10" fill="none"/><line x1="20.39" y1="17.32" x2="15.15" y2="17.32" stroke="#231F20" stroke-miterlimit="10" fill="none"/><path d="M20.39 13.77 17.76 13.77 15.16 11.16" stroke="#231F20" stroke-miterlimit="10" fill="none"/><path d="M20.39 20.86 17.76 20.86 15.15 23.47" stroke="#231F20" stroke-miterlimit="10" fill="none"/><line x1="29.61" y1="17.32" x2="34.85" y2="17.32" stroke="#231F20" stroke-miterlimit="10" fill="none"/><path d="M29.61 13.77 32.24 13.77 34.84 11.16" stroke="#231F20" stroke-miterlimit="10" fill="none"/><path d="M29.61 20.86 32.24 20.86 34.85 23.47" stroke="#231F20" stroke-miterlimit="10" fill="none"/><path d="M29.61 10.22 29.61 20.54C29.61 22.99 27.6 25 25.15 25L24.84 25C22.39 25 20.38 22.99 20.38 20.54L20.38 10.22 29.61 10.22Z" stroke="#231F20" stroke-miterlimit="10" fill="none"/></svg>