<svg viewBox="0 0 50 50" xmlns="http://www.w3.org/2000/svg" xmlns:xlink="http://www.w3.org/1999/xlink" id="GT" overflow="hidden"><defs></defs><path d="M10.8 29.69C10.8 36.59 17.16 42.19 25 42.19 32.84 42.19 39.2 36.59 39.2 29.69" stroke="#231F20" stroke-miterlimit="10" fill="none"/><path d="M39.2 14.06C38.41 6.98 34.47 1.56 25 1.56 15.53 1.56 11.59 6.98 10.8 14.06" stroke="#231F20" stroke-miterlimit="10" fill="none"/><path d="M32.9 39.8C44.14 42.01 48.43 48.44 48.43 48.44" stroke="#231F20" stroke-miterlimit="10" fill="none"/><path d="M1.56 48.44C1.56 48.44 5.85 42.01 17.09 39.8" stroke="#231F20" stroke-miterlimit="10" fill="none"/><path d="M12.5 14.06 10.82 14.06C9.33 14.06 8.12 15.24 8.12 16.69L8.12 27.06C8.12 28.51 9.33 29.69 10.82 29.69L21.87 29.69 23.43 26.57 26.55 26.57 28.11 29.69 39.16 29.69C40.65 29.69 41.86 28.51 41.86 27.06L41.86 16.69C41.86 15.24 40.65 14.06 39.16 14.06L12.5 14.06Z" stroke="#231F20" stroke-miterlimit="10" fill="none"/><path d="M8.13 16.41 6.25 16.41 6.25 27.34 8.13 27.34" stroke="#231F20" stroke-miterlimit="10" fill="none"/><path d="M41.87 16.41 43.75 16.41 43.75 27.34 41.87 27.34" stroke="#231F20" stroke-miterlimit="10" fill="none"/><line x1="39.79" y1="16.41" x2="10.21" y2="16.41" stroke="#231F20" stroke-miterlimit="10" fill="none"/><line x1="39.79" y1="16.41" x2="31.82" y2="24.38" stroke="#231F20" stroke-miterlimit="10" fill="none"/><line x1="35.11" y1="16.41" x2="31.34" y2="20.17" stroke="#231F20" stroke-miterlimit="10" fill="none"/><line x1="18.66" y1="16.41" x2="10.69" y2="24.38" stroke="#231F20" stroke-miterlimit="10" fill="none"/><line x1="13.97" y1="16.41" x2="10.21" y2="20.17" stroke="#231F20" stroke-miterlimit="10" fill="none"/><line x1="42.19" y1="27.34" x2="42.19" y2="43.16" stroke="#231F20" stroke-miterlimit="10" fill="none"/></svg>