<svg viewBox="0 0 50 50" xmlns="http://www.w3.org/2000/svg" xmlns:xlink="http://www.w3.org/1999/xlink" id="GT" overflow="hidden"><defs></defs><path d="M7.18 11.43C3.71 14.9 1.56 19.69 1.56 24.99 1.56 30.29 3.71 35.08 7.18 38.55" stroke="#231F20" stroke-miterlimit="10" fill="none"/><path d="M12.15 14.47C9.47 17.17 7.81 20.88 7.81 24.98 7.81 29.08 9.48 32.83 12.18 35.53" stroke="#231F20" stroke-miterlimit="10" fill="none"/><path d="M17.17 17.51C15.25 19.43 14.06 22.09 14.06 25.02 14.06 27.95 15.25 30.61 17.17 32.53" stroke="#231F20" stroke-miterlimit="10" fill="none"/><path d="M42.82 11.43C46.29 14.9 48.44 19.69 48.44 24.99 48.44 30.29 46.29 35.08 42.82 38.55" stroke="#231F20" stroke-miterlimit="10" fill="none"/><path d="M37.85 14.47C40.53 17.17 42.19 20.88 42.19 24.98 42.19 29.08 40.52 32.83 37.82 35.53" stroke="#231F20" stroke-miterlimit="10" fill="none"/><path d="M32.83 17.51C34.75 19.43 35.94 22.09 35.94 25.02 35.94 27.95 34.75 30.61 32.83 32.53" stroke="#231F20" stroke-miterlimit="10" fill="none"/><path d="M29.69 24.99C29.69 27.58 27.59 29.68 25 29.68 22.41 29.68 20.31 27.58 20.31 24.99 20.31 22.4 22.41 20.3 25 20.3 27.59 20.3 29.69 22.4 29.69 24.99L29.69 24.99Z" stroke="#231F20" stroke-miterlimit="10" fill="none"/></svg>