<svg viewBox="0 0 50 50" xmlns="http://www.w3.org/2000/svg" xmlns:xlink="http://www.w3.org/1999/xlink" id="GT" overflow="hidden"><defs></defs><path d="M14.26 9.05C14.26 11.03 12.66 12.63 10.68 12.63 8.7 12.63 7.1 11.03 7.1 9.05 7.1 7.07 8.7 5.47 10.68 5.47 12.66 5.47 14.26 7.07 14.26 9.05L14.26 9.05Z" stroke="#231F20" fill="none"/><line x1="13.93" y1="25.65" x2="13.93" y2="44.53" stroke="#231F20" fill="none"/><line x1="7.42" y1="25.65" x2="7.42" y2="44.53" stroke="#231F20" fill="none"/><path d="M19.79 28.91 13.93 15.23 7.42 15.23 1.56 28.91" stroke="#231F20" fill="none"/><line x1="28.26" y1="25.65" x2="28.26" y2="44.53" stroke="#231F20" fill="none"/><line x1="21.74" y1="25.65" x2="21.74" y2="44.53" stroke="#231F20" fill="none"/><path d="M34.11 28.91 28.26 15.23 21.74 15.23 15.89 28.91" stroke="#231F20" fill="none"/><path d="M28.58 9.05C28.58 11.03 26.98 12.63 25 12.63 23.02 12.63 21.42 11.03 21.42 9.05 21.42 7.07 23.02 5.47 25 5.47 26.98 5.47 28.58 7.07 28.58 9.05L28.58 9.05Z" stroke="#231F20" fill="none"/><line x1="42.58" y1="25.65" x2="42.58" y2="44.53" stroke="#231F20" fill="none"/><line x1="36.07" y1="25.65" x2="36.07" y2="44.53" stroke="#231F20" fill="none"/><path d="M48.44 28.91 42.58 15.23 36.07 15.23 30.21 28.91" stroke="#231F20" fill="none"/><path d="M42.9 9.05C42.9 11.03 41.3 12.63 39.32 12.63 37.34 12.63 35.74 11.03 35.74 9.05 35.74 7.07 37.34 5.47 39.32 5.47 41.3 5.47 42.9 7.07 42.9 9.05L42.9 9.05Z" stroke="#231F20" fill="none"/></svg>