<svg viewBox="0 0 50 50" xmlns="http://www.w3.org/2000/svg" xmlns:xlink="http://www.w3.org/1999/xlink" id="GT" overflow="hidden"><defs></defs><path d="M14.74 21.31 14.74 7.62 35.26 7.62 35.26 21.31" stroke="#231F20" stroke-miterlimit="10" fill="none"/><rect x="13.3" y="22.7" width="23.41" height="16.79" stroke="#231F20" stroke-miterlimit="10" fill="none"/><rect x="20.79" y="18.25" width="8.42" height="2.04" stroke="#231F20" stroke-miterlimit="10" fill="none"/><rect x="23.02" y="25.57" width="3.96" height="3.96" stroke="#231F20" stroke-miterlimit="10" fill="none"/><rect x="23.02" y="31.98" width="3.96" height="3.96" stroke="#231F20" stroke-miterlimit="10" fill="none"/><path d="M41.6 30.48C42.51 30.22 43.43 30.27 44.25 30.57L41.55 21.31 36.71 22.72 39.41 31.98C39.94 31.28 40.69 30.74 41.6 30.48Z" stroke="#231F20" stroke-miterlimit="10" fill="none"/><path d="M43.99 38.69C44.04 38.67 44.09 38.66 44.14 38.64 46.31 37.92 47.54 35.6 46.89 33.38 46.23 31.11 43.85 29.81 41.59 30.47 39.33 31.13 38.02 33.51 38.68 35.77 39.09 37.17 40.15 38.2 41.43 38.63" stroke="#231F20" stroke-miterlimit="10" fill="none"/><path d="M8.4 30.48C7.49 30.22 6.57 30.27 5.75 30.57L8.45 21.31 13.29 22.72 10.59 31.98C10.06 31.28 9.31 30.74 8.4 30.48Z" stroke="#231F20" stroke-miterlimit="10" fill="none"/><path d="M6.01 38.69C5.96 38.67 5.91 38.66 5.86 38.64 3.69 37.92 2.46 35.6 3.11 33.38 3.77 31.11 6.15 29.81 8.41 30.47 10.67 31.13 11.98 33.51 11.32 35.77 10.91 37.17 9.85 38.2 8.57 38.63" stroke="#231F20" stroke-miterlimit="10" fill="none"/><circle cx="20.31" cy="13.87" r="2.11" stroke="#231F20" stroke-miterlimit="10" fill="none"/><circle cx="29.69" cy="13.87" r="2.11" stroke="#231F20" stroke-miterlimit="10" fill="none"/><circle cx="25" cy="3.06" r="1.5" stroke="#231F20" stroke-miterlimit="10" fill="none"/><line x1="25" y1="4.56" x2="25" y2="7.62" stroke="#231F20" stroke-miterlimit="10" fill="none"/><rect x="13.3" y="44.72" width="9.78" height="3.72" stroke="#231F20" stroke-miterlimit="10" fill="none"/><line x1="15.19" y1="44.72" x2="15.19" y2="39.49" stroke="#231F20" stroke-miterlimit="10" fill="none"/><line x1="23.08" y1="39.49" x2="23.08" y2="44.72" stroke="#231F20" stroke-miterlimit="10" fill="none"/><rect x="26.92" y="44.72" width="9.78" height="3.72" stroke="#231F20" stroke-miterlimit="10" fill="none" transform="matrix(-1 1.22465e-16 -1.22465e-16 -1 63.62 93.15)"/><line x1="34.81" y1="44.72" x2="34.81" y2="39.49" stroke="#231F20" stroke-miterlimit="10" fill="none"/><line x1="26.92" y1="39.49" x2="26.92" y2="44.72" stroke="#231F20" stroke-miterlimit="10" fill="none"/></svg>