<svg viewBox="0 0 50 50" xmlns="http://www.w3.org/2000/svg" xmlns:xlink="http://www.w3.org/1999/xlink" id="GT" overflow="hidden"><defs></defs><path d="M37.5 7.81 25 7.81 25 21.88" stroke="#231F20" stroke-miterlimit="10" fill="none"/><path d="M37.5 42.19 25 42.19 25 28.12" stroke="#231F20" stroke-miterlimit="10" fill="none"/><line x1="12.5" y1="25" x2="37.5" y2="25" stroke="#231F20" stroke-miterlimit="10" fill="none"/><path d="M1.56 19.53 1.56 30.47 12.5 30.47 12.5 19.53 1.56 19.53 1.56 19.53Z" stroke="#231F20" stroke-miterlimit="10" fill="none"/><path d="M37.5 19.53 37.5 30.47 48.44 30.47 48.44 19.53 37.5 19.53 37.5 19.53Z" stroke="#231F20" stroke-miterlimit="10" fill="none"/><path d="M37.5 1.56 37.5 12.5 48.44 12.5 48.44 1.56 37.5 1.56 37.5 1.56Z" stroke="#231F20" stroke-miterlimit="10" fill="none"/><path d="M37.5 37.5 37.5 48.44 48.44 48.44 48.44 37.5 37.5 37.5 37.5 37.5Z" stroke="#231F20" stroke-miterlimit="10" fill="none"/></svg>