<svg viewBox="0 0 50 50" xmlns="http://www.w3.org/2000/svg" xmlns:xlink="http://www.w3.org/1999/xlink" id="GT" overflow="hidden"><defs></defs><path d="M30.07 26.71 35.1 31.71C36.03 32.64 36.03 34.15 35.1 35.08L35.1 35.08C34.17 36.01 32.67 36.01 31.74 35.08L26.7 30.08M25.32 35.09 28.33 38.48C29.26 39.41 30.77 39.41 31.7 38.48L31.7 38.48C32.63 37.55 32.66 36.02 31.74 35.08L26.7 30.08M20.83 37.58 23.89 40.79C24.82 41.72 26.33 41.72 27.26 40.79L27.26 40.79C28.19 39.86 28.26 38.3 27.33 37.37M30.06 26.72 35.09 31.72C36.02 32.65 37.53 32.65 38.46 31.72L38.46 31.72C39.39 30.79 39.39 29.28 38.46 28.35L26.78 17.4M22.91 13.88C21.69 12.99 20.3 12.35 18.81 12.02L15.71 11.33M7.51 23.86 4.09 20.44M16.62 28.19C17.55 27.26 17.55 25.75 16.62 24.83L16.62 24.83C15.69 23.9 14.18 23.9 13.25 24.83L12.43 25.65M19.23 32.45 20.09 31.53C21.02 30.6 21.02 29.09 20.09 28.16L20.09 28.16C19.16 27.23 17.56 27.27 16.62 28.19L12.48 32.33M9.14 28.99 12.43 25.64C13.36 24.71 13.36 23.2 12.43 22.27L12.43 22.27C11.5 21.34 9.99 21.34 9.06 22.27L7.04 24.33C6.34 25.04 6.35 26.18 7.05 26.88L9.15 28.98 17.98 37.81C18.68 38.51 19.82 38.52 20.53 37.82L22.59 35.8C23.52 34.87 23.52 33.36 22.59 32.43L22.59 32.43C21.66 31.5 20.15 31.5 19.22 32.43L15.87 35.72M45.64 20.3 37.37 27.31M35.59 11.3 30.17 11.5C29.25 11.53 28.35 11.72 27.49 12.05L22.89 13.84 19.77 15.06C18.56 15.53 17.97 16.89 18.44 18.09L18.44 18.09C18.91 19.3 20.27 19.89 21.47 19.42L26.76 17.36 29.17 16.42M12.47 8.48 1.56 17.89M39.06 8.51 48.44 17.89" stroke="#231F20" fill="none"/></svg>