<svg viewBox="0 0 50 50" xmlns="http://www.w3.org/2000/svg" xmlns:xlink="http://www.w3.org/1999/xlink" id="GT" overflow="hidden"><defs></defs><path d="M14.67 20.77 1.56 7.67 7.67 1.56 20.77 14.66 14.66 20.77ZM10.76 7.21 7.14 10.83M11.51 15.2 15.13 11.58M48.44 42.33 35.34 29.23 29.23 35.34 42.33 48.44 48.44 42.33ZM38.43 34.87 34.81 38.49M42.8 39.23 39.18 42.85M31.93 22.88 27.12 18.07 18.38 26.81 23.19 31.62 31.93 22.88ZM19.14 18.82 21.54 21.23M31.17 30.85 28.76 28.44M20.78 29.2 17.2 32.78M17.2 47.34C21.22 43.32 21.22 36.8 17.2 32.78L17.2 32.78C13.18 28.76 6.66 28.76 2.64 32.78L2.64 32.78 17.2 47.34 17.2 47.34ZM9.91 40.06 7.52 42.45" stroke="#231F20" stroke-miterlimit="10" fill="none"/></svg>