<svg viewBox="0 0 50 50" xmlns="http://www.w3.org/2000/svg" xmlns:xlink="http://www.w3.org/1999/xlink" id="GT" overflow="hidden"><defs></defs><line x1="25" y1="1.56" x2="25" y2="48.44" stroke="#231F20" stroke-miterlimit="10" fill="none"/><line x1="5.82" y1="25" x2="35.29" y2="25" stroke="#231F20" stroke-miterlimit="10" fill="none"/><line x1="4.41" y1="13.79" x2="29.23" y2="13.79" stroke="#231F20" stroke-miterlimit="10" fill="none"/><line x1="4.42" y1="36.21" x2="45.58" y2="36.21" stroke="#231F20" stroke-miterlimit="10" fill="none"/><path d="M22.82 1.66C22.82 1.66 14.87 5.54 13.44 20.72 13.44 20.72 12.88 25.23 13.44 29.24 15.55 44.4 22.82 48.37 22.82 48.37" stroke="#231F20" stroke-miterlimit="10" fill="none"/><path d="M47.13 16.21 38.68 30.86 30.23 16.21C29.4 14.77 28.92 13.11 28.92 11.32 28.92 5.93 33.29 1.56 38.68 1.56 44.07 1.56 48.44 5.93 48.44 11.32 48.44 13.1 47.96 14.77 47.13 16.21Z" stroke="#231F20" stroke-miterlimit="10" fill="none"/><circle cx="38.67" cy="11.29" r="4.19" stroke="#231F20" stroke-miterlimit="10" fill="none"/><path d="M46.89 16.61C47.89 19.21 48.43 22.04 48.43 25 48.43 37.94 37.94 48.44 24.99 48.44 12.04 48.44 1.56 37.94 1.56 25 1.56 12.06 12.06 1.56 25 1.56 27.96 1.56 30.79 2.11 33.4 3.11" stroke="#231F20" stroke-miterlimit="10" fill="none"/><path d="M31.1 5.16C29.02 2.52 27.18 1.62 27.18 1.62" stroke="#231F20" stroke-miterlimit="10" fill="none"/><path d="M27.18 48.34C27.18 48.34 34.45 44.37 36.56 29.21 36.64 28.64 36.7 28.07 36.73 27.49" stroke="#231F20" stroke-miterlimit="10" fill="none"/></svg>