<svg viewBox="0 0 50 50" xmlns="http://www.w3.org/2000/svg" xmlns:xlink="http://www.w3.org/1999/xlink" id="GT" overflow="hidden"><defs></defs><line x1="32.29" y1="4.51" x2="5.99" y2="42.14" stroke="#231F20" stroke-miterlimit="10" fill="none"/><line x1="43.74" y1="10.62" x2="34.72" y2="4.22" stroke="#231F20" stroke-miterlimit="10" fill="none"/><path d="M45.09 32.51C44.17 32.51 43.42 33.26 43.42 34.18 43.42 35.1 44.17 35.85 45.09 35.85 46.01 35.85 46.76 35.1 46.76 34.18 46.76 33.26 46.01 32.51 45.09 32.51L45.09 32.51Z" stroke="#231F20" stroke-miterlimit="10" fill="none"/><path d="M33.37 1.56C32.45 1.56 31.7 2.31 31.7 3.23 31.7 4.15 32.45 4.9 33.37 4.9 34.29 4.9 35.04 4.15 35.04 3.23 35.04 2.31 34.29 1.56 33.37 1.56L33.37 1.56Z" stroke="#231F20" stroke-miterlimit="10" fill="none"/><path d="M45.09 9.93C44.17 9.93 43.42 10.68 43.42 11.6 43.42 12.52 44.17 13.27 45.09 13.27 46.01 13.27 46.76 12.52 46.76 11.6 46.76 10.68 46.01 9.93 45.09 9.93L45.09 9.93Z" stroke="#231F20" stroke-miterlimit="10" fill="none"/><path d="M4.91 41.74C3.99 41.74 3.24 42.49 3.24 43.41 3.24 44.33 3.99 45.08 4.91 45.08 5.83 45.08 6.58 44.33 6.58 43.41 6.58 42.49 5.83 41.74 4.91 41.74L4.91 41.74Z" stroke="#231F20" stroke-miterlimit="10" fill="none"/><path d="M4.91 19.98C3.99 19.98 3.24 20.73 3.24 21.65 3.24 22.57 3.99 23.32 4.91 23.32 5.83 23.32 6.58 22.57 6.58 21.65 6.58 20.73 5.83 19.98 4.91 19.98L4.91 19.98Z" stroke="#231F20" stroke-miterlimit="10" fill="none"/><path d="M13.28 9.93C12.36 9.93 11.61 10.68 11.61 11.6 11.61 12.52 12.36 13.27 13.28 13.27 14.2 13.27 14.95 12.52 14.95 11.6 14.95 10.68 14.2 9.93 13.28 9.93L13.28 9.93Z" stroke="#231F20" stroke-miterlimit="10" fill="none"/><line x1="5.98" y1="20.37" x2="12.21" y2="12.89" stroke="#231F20" stroke-miterlimit="10" fill="none"/><line x1="14.63" y1="12.59" x2="43.74" y2="33.2" stroke="#231F20" stroke-miterlimit="10" fill="none"/><line x1="48.44" y1="48.44" x2="1.56" y2="48.44" stroke="#231F20" stroke-miterlimit="10" fill="none"/></svg>