<svg viewBox="0 0 50 50" xmlns="http://www.w3.org/2000/svg" xmlns:xlink="http://www.w3.org/1999/xlink" id="GT" overflow="hidden"><defs></defs><path d="M37.78 7.33C41.31 10.7 43.51 15.45 43.51 20.72 43.51 30.94 35.22 39.23 25 39.23 14.78 39.23 6.49 30.94 6.49 20.72 6.49 15.46 8.68 10.71 12.2 7.35M31.73 42.68 25 39.24 18.27 42.68M5.77 22.48 1.56 18.27M11.66 18.27 7.45 22.48M9.2 31.92 3.45 30.38M12.19 25.33 10.65 31.08M16.88 38.38 12.99 39.42M16.65 32.95 17.72 36.93M7.52 12.59 6.38 8.32M8.98 13.43 13.34 12.26M48.44 18.27 44.23 22.48M42.55 22.48 38.34 18.27M46.55 30.38 40.8 31.92M39.34 31.08 37.8 25.33M36.99 39.42 33.1 38.38M32.26 36.92 33.33 32.94M43.62 8.31 42.48 12.58M36.66 12.25 41.02 13.42" stroke="#231F20" stroke-miterlimit="10" fill="none"/></svg>