<svg viewBox="0 0 50 50" xmlns="http://www.w3.org/2000/svg" xmlns:xlink="http://www.w3.org/1999/xlink" id="GT" overflow="hidden"><defs></defs><path d="M40.63 25C40.63 33.63 33.63 40.63 25 40.63 16.37 40.63 9.37 33.63 9.37 25 9.37 16.37 16.37 9.38 25 9.38 33.63 9.38 40.63 16.38 40.63 25ZM25 9.38 25 40.63M12.22 25 37.79 25M11.28 17.53 38.73 17.53M11.29 32.48 38.73 32.48M23.56 9.45C23.56 9.45 18.26 12.04 17.31 22.16 17.31 22.16 16.93 25.17 17.31 27.84 18.72 37.94 23.56 40.59 23.56 40.59M26.46 40.57C26.46 40.57 31.3 37.92 32.71 27.82 33.08 25.14 32.71 22.14 32.71 22.14 31.76 12.02 26.46 9.43 26.46 9.43" stroke="#231F20" stroke-miterlimit="10" fill="none"/><path d="M10.94 2.64 10.94 10.94 2.64 10.94" stroke="#231F20" fill="none"/><line x1="1.56" y1="1.56" x2="10.94" y2="10.94" stroke="#231F20" stroke-miterlimit="22.93" fill="none"/><path d="M39.06 2.64 39.06 10.94 47.36 10.94" stroke="#231F20" fill="none"/><line x1="48.44" y1="1.56" x2="39.06" y2="10.94" stroke="#231F20" stroke-miterlimit="22.93" fill="none"/><path d="M10.94 47.36 10.94 39.06 2.64 39.06" stroke="#231F20" fill="none"/><line x1="1.56" y1="48.44" x2="10.94" y2="39.06" stroke="#231F20" stroke-miterlimit="22.93" fill="none"/><path d="M39.06 47.36 39.06 39.06 47.36 39.06" stroke="#231F20" fill="none"/><line x1="48.44" y1="48.44" x2="39.06" y2="39.06" stroke="#231F20" stroke-miterlimit="22.93" fill="none"/></svg>