<svg viewBox="0 0 50 50" xmlns="http://www.w3.org/2000/svg" xmlns:xlink="http://www.w3.org/1999/xlink" id="GT" overflow="hidden"><defs></defs><path d="M15.73 48.44 15.73 42.81 11.71 42.81C9.48 42.81 7.8 40.63 7.8 38.39L7.8 32.82 3.98 32.82C2.91 32.82 2.25 31.65 2.81 30.74L7.83 22.47C7.81 22.1 7.8 21.73 7.8 21.35 7.79 10.16 17.09 1.13 28.39 1.58 38.49 1.98 46.76 10.08 47.36 20.17 47.75 26.84 44.84 32.85 40.1 36.71L40.1 48.44" stroke="#231F20" stroke-miterlimit="10" fill="none"/><path d="M32.31 30.21 23.93 30.21 23.93 24.45C21.57 23.03 20.01 20.45 20.01 17.49 20.01 13.01 23.64 9.38 28.12 9.38 32.6 9.38 36.23 13.01 36.23 17.49 36.23 20.45 34.68 23.04 32.32 24.45L32.32 30.21Z" stroke="#231F20" stroke-miterlimit="10" fill="none"/><line x1="23.94" y1="32.29" x2="32.31" y2="32.29" stroke="#231F20" stroke-miterlimit="10" fill="none"/><line x1="24.99" y1="34.38" x2="31.26" y2="34.38" stroke="#231F20" stroke-miterlimit="10" fill="none"/></svg>