<svg viewBox="0 0 50 50" xmlns="http://www.w3.org/2000/svg" xmlns:xlink="http://www.w3.org/1999/xlink" id="GT" overflow="hidden"><defs></defs><path d="M28.68 48.44 28.68 33.6C28.68 33.6 11.4 33.65 11.4 33.65L11.4 18.77C11.4 16.04 13.61 13.82 16.35 13.82L16.35 13.82C19.08 13.82 21.3 16.03 21.3 18.77L21.3 33.62M8.94 38.55 23.78 38.55M16.19 18.75 16.19 23.71 28.7 26.18M36.15 26.18 33.62 16.42M31.21 23.71 36.16 8.78M26.27 28.66 41.11 28.66 41.11 48.44M16.38 38.55 16.38 48.44" stroke="#231F20" fill="none"/><path d="M20.25 5.64C20.25 7.89 18.43 9.71 16.18 9.71 13.93 9.71 12.11 7.89 12.11 5.64 12.11 3.39 13.93 1.57 16.18 1.57 18.43 1.57 20.25 3.39 20.25 5.64L20.25 5.64Z" stroke="#231F20" fill="none"/></svg>