<svg viewBox="0 0 50 50" xmlns="http://www.w3.org/2000/svg" xmlns:xlink="http://www.w3.org/1999/xlink" id="GT" overflow="hidden"><defs></defs><path d="M29.14 41.33 16.94 39.46C15.54 39.28 13.39 38.47 13.23 37.03L13.23 37.03C13.06 35.59 14.1 34.28 15.54 34.11L30.89 34.97 41.42 37.72 45.31 37.91M13.55 37.82 6.24 30.64C5.24 29.62 3.62 29.54 2.53 30.47L2.53 30.47C1.34 31.48 1.24 33.29 2.31 34.43L15.11 47.33 30.9 48.44 41.43 46.69 45.32 46.69M15.55 34.12 11.85 30.59C11.12 29.9 10 29.82 9.19 30.41L7.34 31.76M21.4 34.45 16.53 30.55C15.83 29.92 14.78 29.9 14.06 30.51L12.85 31.55M48.45 37.92 48.45 46.69" stroke="#231F20" fill="none"/><path d="M25 29.69C25 29.69 9.38 21.28 9.38 9.38L9.38 9.38C9.34 5.01 12.83 1.61 17.19 1.57 17.19 1.57 17.19 1.57 17.19 1.57 21.54 1.61 25.04 5 25 9.38L25 9.38C24.96 5.01 28.46 1.61 32.81 1.57 32.81 1.57 32.81 1.57 32.81 1.57 37.16 1.61 40.66 5.01 40.62 9.38L40.62 9.38C40.62 21.28 24.99 29.69 24.99 29.69L24.99 29.69Z" stroke="#231F20" fill="none"/></svg>