<svg viewBox="0 0 50 50" xmlns="http://www.w3.org/2000/svg" xmlns:xlink="http://www.w3.org/1999/xlink" id="GT" overflow="hidden"><defs></defs><path d="M42.91 12.61 48.44 7.09 42.91 1.56" stroke="#231F20" stroke-miterlimit="10" fill="none"/><path d="M7.09 48.44 1.56 42.91 7.09 37.39" stroke="#231F20" stroke-miterlimit="10" fill="none"/><path d="M48.44 7.03 25 7.03C15.08 7.03 7.03 15.08 7.03 25 7.03 31.17 10.14 36.61 14.87 39.84" stroke="#231F20" stroke-miterlimit="10" fill="none"/><path d="M1.56 42.97 25 42.97C34.92 42.97 42.97 34.93 42.97 25 42.97 18.83 39.86 13.39 35.13 10.16" stroke="#231F20" stroke-miterlimit="10" fill="none"/><line x1="25" y1="7.03" x2="25" y2="42.97" stroke="#231F20" stroke-miterlimit="10" fill="none"/><line x1="10.3" y1="25" x2="39.7" y2="25" stroke="#231F20" stroke-miterlimit="10" fill="none"/><line x1="9.22" y1="16.41" x2="40.78" y2="16.4" stroke="#231F20" stroke-miterlimit="10" fill="none"/><line x1="9.22" y1="33.6" x2="40.78" y2="33.59" stroke="#231F20" stroke-miterlimit="10" fill="none"/><path d="M23.33 7.11C23.33 7.11 17.23 10.08 16.14 21.72 16.14 21.72 15.71 25.18 16.14 28.26 17.76 39.88 23.33 42.93 23.33 42.93" stroke="#231F20" stroke-miterlimit="10" fill="none"/><path d="M26.67 42.89C26.67 42.89 32.24 39.84 33.86 28.22 34.29 25.14 33.86 21.68 33.86 21.68 32.77 10.04 26.67 7.07 26.67 7.07" stroke="#231F20" stroke-miterlimit="10" fill="none"/></svg>