<svg viewBox="0 0 50 50" xmlns="http://www.w3.org/2000/svg" xmlns:xlink="http://www.w3.org/1999/xlink" id="GT" overflow="hidden"><defs></defs><line x1="1.56" y1="48.44" x2="48.44" y2="48.44" stroke="#231F20" stroke-miterlimit="22.93" fill="none"/><path d="M12.24 11.92C12.24 14.5 10.13 16.63 7.53 16.63 4.93 16.63 2.82 14.5 2.82 11.92 2.82 6.52 7.53 1.56 7.53 1.56 7.53 1.56 12.24 6.52 12.24 11.92Z" stroke="#231F20" stroke-miterlimit="22.93" fill="none"/><line x1="7.53" y1="16.63" x2="7.53" y2="23.55" stroke="#231F20" stroke-miterlimit="22.93" fill="none"/><line x1="14.6" y1="18.59" x2="14.6" y2="24.41" stroke="#231F20" stroke-miterlimit="22.93" fill="none"/><path d="M48.44 25.53C41.77 21.72 39.28 13.29 32.64 13.29 28.1 13.29 25.64 19.11 19.98 23.42" stroke="#231F20" stroke-miterlimit="22.93" fill="none"/><path d="M42.19 7.81 39.01 7.81C38.46 4.93 36.16 3.93 33.56 4.54 32.49 2.7 30.52 1.56 28.23 1.56 24.83 1.56 21.91 3.53 21.88 7.81" stroke="#231F20" stroke-miterlimit="22.93" fill="none"/><path d="M11.53 8.1C12.86 5.63 14.46 3.95 14.46 3.95 14.46 3.95 19.17 8.91 19.17 14.31 19.17 16.89 17.06 19.02 14.46 19.02 12.42 19.02 10.68 17.71 10.03 15.9" stroke="#231F20" stroke-miterlimit="22.93" fill="none"/><path d="M1.56 23.89C3.27 23.65 5.02 23.53 6.81 23.53 22.78 23.53 36.02 33.31 38.43 46.09" stroke="#231F20" stroke-miterlimit="22.93" fill="none"/><path d="M1.56 29.77C3.25 29.47 5.01 29.31 6.81 29.31 18.94 29.31 29.06 36.5 31.4 46.07" stroke="#231F20" stroke-miterlimit="22.93" fill="none"/><path d="M1.56 36.27C3.22 35.84 4.98 35.6 6.81 35.6 14.77 35.6 21.49 40.02 23.65 46.09" stroke="#231F20" stroke-miterlimit="22.93" fill="none"/><path d="M34.38 32.69C38.33 29.82 43.19 28.12 48.44 28.12" stroke="#231F20" stroke-miterlimit="22.93" fill="none"/><path d="M36.99 37.18C40.16 34.74 44.13 33.29 48.43 33.29" stroke="#231F20" stroke-miterlimit="22.93" fill="none"/></svg>