<svg viewBox="0 0 50 50" xmlns="http://www.w3.org/2000/svg" xmlns:xlink="http://www.w3.org/1999/xlink" id="GT" overflow="hidden"><defs></defs><path d="M25 16.14C19.68 16.14 15.36 20.46 15.36 25.78 15.36 31.1 19.68 35.42 25 35.42 30.32 35.42 34.64 31.1 34.64 25.78 34.64 20.46 30.32 16.14 25 16.14L25 16.14Z" stroke="#231F20" stroke-miterlimit="10" fill="none"/><path d="M41.41 25.78C41.41 34.84 34.06 42.19 25 42.19 15.94 42.19 8.59 34.84 8.59 25.78 8.59 16.72 15.94 9.38 25 9.38 34.06 9.38 41.41 16.73 41.41 25.79L41.41 25.79Z" stroke="#231F20" stroke-miterlimit="10" fill="none"/><line x1="4.48" y1="23.08" x2="4.48" y2="42.19" stroke="#231F20" stroke-miterlimit="10" fill="none"/><path d="M7.39 7.81 7.39 20.15 4.48 21.13 1.56 20.15 1.56 7.81" stroke="#231F20" stroke-miterlimit="10" fill="none"/><line x1="4.48" y1="7.81" x2="4.48" y2="18.1" stroke="#231F20" stroke-miterlimit="10" fill="none"/><line x1="44.02" y1="27.27" x2="44.02" y2="42.19" stroke="#231F20" stroke-miterlimit="10" fill="none"/><path d="M44.02 25.31 44.02 8.44C44.02 8.44 48.44 10.71 48.44 14.96L48.44 25.31 44.02 25.31Z" stroke="#231F20" stroke-miterlimit="10" fill="none"/></svg>