<svg viewBox="0 0 50 50" xmlns="http://www.w3.org/2000/svg" xmlns:xlink="http://www.w3.org/1999/xlink" id="GT" overflow="hidden"><defs></defs><line x1="20.31" y1="1.56" x2="29.69" y2="1.56" stroke="#231F20" stroke-miterlimit="10" fill="none"/><line x1="25" y1="1.56" x2="25" y2="6.25" stroke="#231F20" stroke-miterlimit="10" fill="none"/><path d="M25 16.08 25 27.34 13.74 27.34" stroke="#231F20" stroke-miterlimit="10" fill="none"/><path d="M25 13.26C32.78 13.26 39.08 19.56 39.08 27.34 39.08 35.12 32.78 41.42 25 41.42 17.22 41.42 10.92 35.12 10.92 27.34" stroke="#231F20" stroke-miterlimit="10" fill="none"/><path d="M18.89 14.65C19.83 14.2 20.83 13.85 21.87 13.61" stroke="#231F20" stroke-miterlimit="10" fill="none"/><path d="M13.99 18.56C14.65 17.74 15.4 16.99 16.22 16.33" stroke="#231F20" stroke-miterlimit="10" fill="none"/><path d="M11.27 24.21C11.51 23.17 11.86 22.17 12.31 21.23" stroke="#231F20" stroke-miterlimit="10" fill="none"/><path d="M28.12 6.48C38.29 7.99 46.09 16.76 46.09 27.34 46.09 38.99 36.65 48.43 25 48.43 13.35 48.43 3.91 38.99 3.91 27.34 3.91 16.76 11.71 7.99 21.87 6.48" stroke="#231F20" stroke-miterlimit="10" fill="none"/></svg>