<svg viewBox="0 0 50 50" xmlns="http://www.w3.org/2000/svg" xmlns:xlink="http://www.w3.org/1999/xlink" id="GT" overflow="hidden"><defs></defs><path d="M48.44 25C48.44 37.94 37.95 48.44 25 48.44 12.05 48.44 1.56 37.94 1.56 25 1.56 12.06 12.06 1.56 25 1.56 37.94 1.56 48.44 12.05 48.44 25ZM25 1.56 25 48.44M5.82 25 44.17 25M4.41 13.79 45.58 13.79M4.42 36.21 45.58 36.21M22.82 1.66C22.82 1.66 14.87 5.54 13.44 20.72 13.44 20.72 12.88 25.23 13.44 29.24 15.55 44.4 22.82 48.37 22.82 48.37M27.17 48.33C27.17 48.33 34.44 44.36 36.55 29.2 37.11 25.19 36.55 20.68 36.55 20.68 35.13 5.5 27.18 1.63 27.18 1.63" stroke="#231F20" stroke-miterlimit="10" fill="none"/></svg>