<svg viewBox="0 0 50 50" xmlns="http://www.w3.org/2000/svg" xmlns:xlink="http://www.w3.org/1999/xlink" id="GT" overflow="hidden"><defs></defs><path d="M25 17.97 25 25 17.97 25" stroke="#231F20" fill="none"/><line x1="1.56" y1="1.56" x2="25" y2="25" stroke="#231F20" stroke-miterlimit="22.93" fill="none"/><path d="M6.76 10.28C3.51 14.31 1.56 19.43 1.56 25 1.56 37.94 12.05 48.44 25 48.44 37.95 48.44 48.44 37.95 48.44 25 48.44 12.05 37.94 1.56 25 1.56 19.49 1.56 14.42 3.46 10.42 6.65" stroke="#231F20" stroke-miterlimit="10" fill="none" fill-rule="evenodd"/><path d="M15.19 11.61C15.08 11.69 14.97 11.78 14.86 11.86M11.91 14.79C9.71 17.61 8.4 21.15 8.4 25 8.4 34.17 15.83 41.6 25 41.6 34.17 41.6 41.6 34.17 41.6 25 41.6 15.83 34.17 8.4 25 8.4 21.33 8.4 17.94 9.59 15.19 11.61" stroke="#231F20" stroke-miterlimit="10" fill="none"/><path d="M19.52 16.92C21.08 15.86 22.97 15.24 25 15.24 30.39 15.24 34.77 19.61 34.77 25.01 34.77 30.41 30.4 34.78 25 34.78 19.6 34.78 15.23 30.41 15.23 25.01 15.23 22.98 15.85 21.1 16.9 19.54" stroke="#231F20" stroke-miterlimit="10" fill="none"/><path d="M27.43 20.52C29.02 21.38 30.09 23.06 30.09 25 30.09 27.81 27.81 30.09 25 30.09 23.08 30.09 21.4 29.02 20.54 27.45" stroke="#231F20" stroke-miterlimit="10" fill="none"/></svg>