<svg viewBox="0 0 50 50" xmlns="http://www.w3.org/2000/svg" xmlns:xlink="http://www.w3.org/1999/xlink" id="GT" overflow="hidden"><defs></defs><circle cx="24.99" cy="4.83" r="3.26" stroke="#231F20" fill="none"/><circle cx="40.55" cy="4.83" r="3.26" stroke="#231F20" fill="none"/><circle cx="9.44" cy="4.83" r="3.26" stroke="#231F20" fill="none"/><path d="M35.93 25.01C35.93 31.04 31.04 35.94 25 35.94 18.96 35.94 14.07 31.05 14.07 25.01" stroke="#231F20" stroke-miterlimit="10" fill="none"/><line x1="21.37" y1="48.44" x2="28.58" y2="48.44" stroke="#231F20" stroke-miterlimit="10" fill="none"/><path d="M48.44 25 48.44 28.62 42.29 30.16C41.92 31.4 41.42 32.59 40.81 33.7L44 39.01 38.9 44.11 33.54 40.9C32.43 41.5 31.24 41.98 30.01 42.34L29.38 44.85" stroke="#231F20" stroke-miterlimit="10" fill="none"/><path d="M20.62 44.83 19.99 42.32C18.75 41.96 17.57 41.48 16.46 40.88L11.1 44.09 6 38.99 9.19 33.68C8.58 32.57 8.08 31.38 7.71 30.14L1.56 28.6 1.56 24.99" stroke="#231F20" stroke-miterlimit="10" fill="none"/><path d="M47.66 21.87 43.82 10.94 37.29 10.94 33.59 21.87 32.03 21.87 28.26 10.94 21.73 10.94 17.97 21.87 16.41 21.87 12.7 10.94 6.17 10.94 2.34 21.87" stroke="#231F20" fill="none"/><line x1="45.31" y1="25" x2="4.69" y2="25" stroke="#231F20" fill="none"/></svg>