<svg viewBox="0 0 50 50" xmlns="http://www.w3.org/2000/svg" xmlns:xlink="http://www.w3.org/1999/xlink" id="GT" overflow="hidden"><defs></defs><rect x="10.94" y="1.56" width="7.81" height="3.14" stroke="#231F20" stroke-miterlimit="10" fill="none"/><path d="M22.66 23.44 10.16 23.44 10.16 12.53 22.66 12.53" stroke="#231F20" stroke-miterlimit="10" fill="none"/><path d="M11.72 6.25 11.72 7.81 7.03 10.94 7.03 25 8.59 26.56 7.03 28.12 7.03 48.44" stroke="#231F20" stroke-miterlimit="10" fill="none"/><path d="M17.97 6.25 17.97 7.81 22.66 10.94 22.66 25 21.09 26.56 22.66 28.12 22.66 48.44" stroke="#231F20" stroke-miterlimit="10" fill="none"/><line x1="10.16" y1="29.69" x2="22.66" y2="29.69" stroke="#231F20" stroke-miterlimit="10" fill="none"/><line x1="21.09" y1="26.56" x2="10.94" y2="26.56" stroke="#231F20" stroke-miterlimit="10" fill="none"/><line x1="10.16" y1="39.06" x2="22.66" y2="39.06" stroke="#231F20" stroke-miterlimit="10" fill="none"/><line x1="10.16" y1="34.38" x2="22.66" y2="34.38" stroke="#231F20" stroke-miterlimit="10" fill="none"/><line x1="10.16" y1="43.75" x2="22.66" y2="43.75" stroke="#231F20" stroke-miterlimit="10" fill="none"/><line x1="8.59" y1="48.44" x2="21.09" y2="48.44" stroke="#231F20" stroke-miterlimit="10" fill="none"/><rect x="31.25" y="7.81" width="7.81" height="3.12" stroke="#231F20" stroke-miterlimit="10" fill="none"/><path d="M42.97 29.69 30.47 29.69 30.47 18.75 42.97 18.75" stroke="#231F20" stroke-miterlimit="10" fill="none"/><line x1="30.47" y1="34.38" x2="42.97" y2="34.38" stroke="#231F20" stroke-miterlimit="10" fill="none"/><line x1="30.47" y1="39.06" x2="42.97" y2="39.06" stroke="#231F20" stroke-miterlimit="10" fill="none"/><line x1="30.47" y1="43.75" x2="42.97" y2="43.75" stroke="#231F20" stroke-miterlimit="10" fill="none"/><path d="M32.03 12.5 32.03 14.06 27.34 17.19 27.34 48.44" stroke="#231F20" stroke-miterlimit="10" fill="none"/><path d="M38.28 12.5 38.28 14.06 42.97 17.19 42.97 48.44" stroke="#231F20" stroke-miterlimit="10" fill="none"/><line x1="41.41" y1="48.44" x2="28.91" y2="48.44" stroke="#231F20" stroke-miterlimit="10" fill="none"/></svg>