<svg viewBox="0 0 50 50" xmlns="http://www.w3.org/2000/svg" xmlns:xlink="http://www.w3.org/1999/xlink" id="GT" overflow="hidden"><defs></defs><path d="M40.62 32.03 41.73 32.03C45.43 32.03 48.43 29 48.43 25.27 48.43 21.54 45.43 18.52 41.73 18.52 41.37 18.52 41.01 18.56 40.67 18.61 40.7 18.26 40.71 17.9 40.71 17.54 40.71 9.57 34.3 3.11 26.39 3.11 18.48 3.11 12.26 9.38 12.08 17.18 11.19 16.82 10.22 16.61 9.2 16.61 4.98 16.61 1.55 20.06 1.55 24.31 1.55 28.56 4.74 31.79 8.76 32.01L9.36 32.01" stroke="#231F20" stroke-miterlimit="10" fill="none"/><line x1="19.53" y1="32.03" x2="12.5" y2="32.03" stroke="#231F20" fill="none"/><line x1="37.5" y1="32.03" x2="30.47" y2="32.03" stroke="#231F20" fill="none"/><line x1="21.13" y1="28.16" x2="16.16" y2="23.19" stroke="#231F20" fill="none"/><line x1="33.84" y1="40.87" x2="28.87" y2="35.9" stroke="#231F20" fill="none"/><line x1="25" y1="26.56" x2="25" y2="19.53" stroke="#231F20" fill="none"/><line x1="25" y1="44.53" x2="25" y2="37.5" stroke="#231F20" fill="none"/><line x1="28.87" y1="28.16" x2="33.84" y2="23.19" stroke="#231F20" fill="none"/><line x1="16.16" y1="40.87" x2="21.13" y2="35.9" stroke="#231F20" fill="none"/></svg>