<svg viewBox="0 0 50 50" xmlns="http://www.w3.org/2000/svg" xmlns:xlink="http://www.w3.org/1999/xlink" id="GT" overflow="hidden"><defs></defs><line x1="12.5" y1="3.12" x2="37.5" y2="3.12" stroke="#231F20" stroke-miterlimit="10" fill="none"/><line x1="9.38" y1="48.43" x2="40.62" y2="48.44" stroke="#231F20" stroke-miterlimit="10" fill="none"/><path d="M9.36 7.81 1.58 7.81C1.58 7.81 0.84 21.87 9.48 21.87" stroke="#231F20" stroke-miterlimit="10" fill="none"/><path d="M40.64 3.12 40.64 20.18C40.61 28.77 33.63 35.73 25.05 35.73L24.99 35.73 24.99 35.73C24.99 35.73 24.93 35.73 24.93 35.73 16.34 35.73 9.38 28.77 9.35 20.18L9.35 3.12" stroke="#231F20" stroke-miterlimit="10" fill="none"/><path d="M40.51 21.87C49.15 21.87 48.41 7.81 48.41 7.81L40.63 7.81" stroke="#231F20" stroke-miterlimit="10" fill="none"/><path d="M18.75 34.45 18.75 43.75 12.5 43.75 12.5 48.44" stroke="#231F20" stroke-miterlimit="10" fill="none"/><path d="M31.25 34.45 31.25 43.75 37.5 43.75 37.5 48.44" stroke="#231F20" stroke-miterlimit="10" fill="none"/></svg>