<svg viewBox="0 0 50 50" xmlns="http://www.w3.org/2000/svg" xmlns:xlink="http://www.w3.org/1999/xlink" id="GT" overflow="hidden"><defs></defs><path d="M21.88 15.62C21.88 13.89 23.28 12.5 25 12.5 26.72 12.5 28.12 13.9 28.12 15.62" stroke="#231F20" stroke-miterlimit="10" fill="none"/><path d="M21.88 9.38C21.88 11.11 23.28 12.5 25 12.5 26.72 12.5 28.12 11.1 28.12 9.38" stroke="#231F20" stroke-miterlimit="10" fill="none"/><line x1="25" y1="15.62" x2="25" y2="26.43" stroke="#231F20" stroke-miterlimit="10" fill="none"/><line x1="20.94" y1="21.87" x2="16.33" y2="21.87" stroke="#231F20" stroke-miterlimit="10" fill="none"/><path d="M20.94 18.75 18.62 18.75 16.33 16.46" stroke="#231F20" stroke-miterlimit="10" fill="none"/><path d="M20.94 25 18.62 25 16.33 27.3" stroke="#231F20" stroke-miterlimit="10" fill="none"/><line x1="29.06" y1="21.87" x2="33.67" y2="21.88" stroke="#231F20" stroke-miterlimit="10" fill="none"/><path d="M29.06 18.75 31.38 18.75 33.67 16.46" stroke="#231F20" stroke-miterlimit="10" fill="none"/><path d="M29.06 25 31.38 25 33.67 27.3" stroke="#231F20" stroke-miterlimit="10" fill="none"/><path d="M29.06 15.63 29.06 24.72C29.06 26.88 27.29 28.65 25.13 28.65L24.86 28.65C22.7 28.65 20.93 26.88 20.93 24.72L20.93 15.63 29.06 15.63Z" stroke="#231F20" stroke-miterlimit="10" fill="none"/><path d="M46.87 19.27 25 39.46 3.13 19.27" stroke="#231F20" stroke-miterlimit="10" fill="none"/><line x1="28.81" y1="35.95" x2="46.88" y2="48.44" stroke="#231F20" stroke-miterlimit="10" fill="none"/><line x1="3.12" y1="48.44" x2="21.19" y2="35.95" stroke="#231F20" stroke-miterlimit="10" fill="none"/><line x1="6.25" y1="48.44" x2="43.75" y2="48.44" stroke="#231F20" stroke-miterlimit="10" fill="none"/><path d="M46.88 48.44 46.87 19.27 25 1.56 3.13 19.27 3.12 48.44" stroke="#231F20" stroke-miterlimit="10" fill="none"/></svg>