<svg viewBox="0 0 50 50" xmlns="http://www.w3.org/2000/svg" xmlns:xlink="http://www.w3.org/1999/xlink" id="GT" overflow="hidden"><defs></defs><path d="M20.6 45.31 19.84 42.3C18.64 41.94 17.48 41.47 16.4 40.88L11.02 44.1 5.92 39.02 9.15 33.65C8.55 32.55 8.06 31.37 7.7 30.14L1.56 28.65 1.56 21.35 7.7 19.86C8.06 18.63 8.55 17.46 9.15 16.35L5.92 10.98 11.02 5.9 16.4 9.12C17.48 8.53 18.64 8.06 19.84 7.7L21.38 1.56 28.56 1.56C28.56 1.56 30.16 7.7 30.16 7.7 31.36 8.06 32.52 8.53 33.6 9.12L38.98 5.9 44.08 10.98 40.85 16.35C41.45 17.45 41.94 18.63 42.3 19.86L48.44 21.35 48.44 28.65 42.3 30.14C41.94 31.37 41.45 32.54 40.85 33.65L44.08 39.02 38.98 44.1 33.6 40.88C32.52 41.47 31.36 41.94 30.16 42.3L29.37 45.31" stroke="#231F20" stroke-miterlimit="10" fill="none"/><line x1="28.56" y1="48.44" x2="21.38" y2="48.44" stroke="#231F20" stroke-miterlimit="10" fill="none"/><path d="M26.03 24.6 25.2 23.84C23.63 22.42 21.07 22.69 19.46 24.46L15.26 29.08C13.66 30.84 13.63 33.43 15.19 34.85L15.39 35.03C16.96 36.45 19.52 36.18 21.13 34.41L22.5 32.88 26.22 28.8M23.95 25.4 24.78 26.16C26.35 27.58 28.91 27.31 30.52 25.54L34.72 20.92C36.32 19.16 36.35 16.57 34.79 15.15L34.59 14.97C33.02 13.55 30.46 13.82 28.85 15.59L27.45 17.13 23.75 21.2" stroke="#231F20" stroke-miterlimit="10" fill="none"/><path d="M20.52 34.98C21.89 35.59 23.4 35.94 25 35.94 31.04 35.94 35.94 31.04 35.94 25 35.94 23.42 35.61 21.93 35.01 20.57" stroke="#231F20" stroke-miterlimit="10" fill="none"/><path d="M29.48 15.02C28.11 14.41 26.6 14.06 25 14.06 18.96 14.06 14.06 18.96 14.06 25 14.06 26.58 14.39 28.07 14.99 29.43" stroke="#231F20" stroke-miterlimit="10" fill="none"/></svg>