<svg viewBox="0 0 50 50" xmlns="http://www.w3.org/2000/svg" xmlns:xlink="http://www.w3.org/1999/xlink" id="GT" overflow="hidden"><defs></defs><path d="M25 10.94 25 21.88M25 25.01 35.16 25.01M35.16 7.4 33.12 10.93M42.6 14.84 39.07 16.88M45.37 25.01 41.29 25.01M42.6 35.17 39.07 33.13M35.18 42.64 33.14 39.1M25 45.33 25 41.25M14.82 42.64 16.85 39.12M10.93 33.13 7.4 35.17M4.63 25.01 8.71 25.01M7.4 14.85 10.93 16.89M14.84 7.41 16.88 10.94M25.01 4.69 25.01 8.77M48.45 25.02C48.45 37.96 37.96 48.46 25.01 48.46 12.06 48.46 1.56 37.94 1.56 25 1.56 12.06 12.06 1.56 25 1.56 37.94 1.56 48.44 12.05 48.44 25L48.44 25Z" stroke="#231F20" stroke-miterlimit="10" fill="none"/></svg>