<svg viewBox="0 0 50 50" xmlns="http://www.w3.org/2000/svg" xmlns:xlink="http://www.w3.org/1999/xlink" id="GT" overflow="hidden"><defs></defs><line x1="45.31" y1="48.44" x2="4.69" y2="48.44" stroke="#231F20" stroke-miterlimit="10" fill="none"/><path d="M31.25 1.56 31.25 7.81 28.12 7.81 28.12 1.56 21.87 1.56 21.87 7.81 18.75 7.81 18.75 1.56 15.62 1.56 15.62 15.62 34.37 15.62 34.37 1.56 31.25 1.56Z" stroke="#231F20" stroke-miterlimit="10" fill="none"/><line x1="10.94" y1="42.19" x2="39.06" y2="42.19" stroke="#231F20" stroke-miterlimit="10" fill="none"/><path d="M39.06 46.09 39.06 39.84C28.91 39.84 29.68 22.85 29.68 16.4L29.68 15.62" stroke="#231F20" stroke-miterlimit="10" fill="none"/><path d="M10.94 46.09 10.94 39.84C21.09 39.84 20.32 22.85 20.32 16.4L20.32 15.62" stroke="#231F20" stroke-miterlimit="10" fill="none"/><line x1="20.33" y1="18.75" x2="29.67" y2="18.75" stroke="#231F20" stroke-miterlimit="10" fill="none"/></svg>