<svg viewBox="0 0 50 50" xmlns="http://www.w3.org/2000/svg" xmlns:xlink="http://www.w3.org/1999/xlink" id="GT" overflow="hidden"><defs></defs><line x1="1.56" y1="48.44" x2="48.44" y2="48.44" stroke="#231F20" stroke-miterlimit="10" fill="none"/><path d="M18.75 46.09 18.75 1.56 31.25 11 31.25 46.09" stroke="#231F20" stroke-miterlimit="10" fill="none"/><line x1="11.72" y1="12.5" x2="11.72" y2="6.25" stroke="#231F20" stroke-miterlimit="10" fill="none"/><line x1="21.88" y1="19.75" x2="28.12" y2="19.75" stroke="#231F20" stroke-miterlimit="10" fill="none"/><line x1="21.88" y1="15.62" x2="28.12" y2="15.62" stroke="#231F20" stroke-miterlimit="10" fill="none"/><line x1="21.88" y1="23.87" x2="28.12" y2="23.87" stroke="#231F20" stroke-miterlimit="10" fill="none"/><line x1="21.88" y1="27.99" x2="28.12" y2="27.99" stroke="#231F20" stroke-miterlimit="10" fill="none"/><line x1="21.88" y1="32.12" x2="28.12" y2="32.12" stroke="#231F20" stroke-miterlimit="10" fill="none"/><line x1="21.88" y1="36.24" x2="28.12" y2="36.24" stroke="#231F20" stroke-miterlimit="10" fill="none"/><line x1="21.88" y1="40.36" x2="28.12" y2="40.36" stroke="#231F20" stroke-miterlimit="10" fill="none"/><line x1="14.06" y1="21.87" x2="14.06" y2="40.62" stroke="#231F20" stroke-miterlimit="10" fill="none"/><line x1="9.37" y1="21.87" x2="9.37" y2="40.62" stroke="#231F20" stroke-miterlimit="10" fill="none"/><line x1="40.62" y1="28.12" x2="40.62" y2="40.62" stroke="#231F20" stroke-miterlimit="10" fill="none"/><line x1="35.94" y1="28.12" x2="35.94" y2="40.62" stroke="#231F20" stroke-miterlimit="10" fill="none"/><line x1="7.03" y1="12.5" x2="16.41" y2="12.5" stroke="#231F20" stroke-miterlimit="10" fill="none"/><path d="M31.25 23.37 45.31 23.37 45.31 46.09" stroke="#231F20" stroke-miterlimit="10" fill="none"/><path d="M18.75 15.34 4.69 15.34 4.69 46.09" stroke="#231F20" stroke-miterlimit="10" fill="none"/></svg>