<svg viewBox="0 0 50 50" xmlns="http://www.w3.org/2000/svg" xmlns:xlink="http://www.w3.org/1999/xlink" id="GT" overflow="hidden"><defs></defs><path d="M40.74 45.4C45.47 41.11 48.44 34.92 48.44 28.03 48.44 15.09 37.95 4.59 25 4.59 12.05 4.59 1.56 15.09 1.56 28.03 1.56 34.91 4.53 41.1 9.25 45.39M25 24.99C23.31 24.99 21.94 26.36 21.94 28.05 21.94 29.74 23.31 31.11 25 31.11 26.69 31.11 28.06 29.74 28.06 28.05 28.06 26.36 26.69 24.99 25 24.99L25 24.99ZM32.73 20.44 27.22 25.95M39.27 13.75 35.7 17.32M45.39 28.03 40.34 28.03M39.27 42.31 35.7 38.74M10.72 42.31 14.29 38.74M4.6 28.03 9.65 28.03M10.71 13.74 14.28 17.31M25 7.7 25 12.75" stroke="#231F20" stroke-miterlimit="10" fill="none"/></svg>