<svg viewBox="0 0 50 50" xmlns="http://www.w3.org/2000/svg" xmlns:xlink="http://www.w3.org/1999/xlink" id="GT" overflow="hidden"><defs></defs><path d="M45.31 43.75 45.31 39.06C45.31 39.06 40.18 30.77 40.18 21.2 40.18 12.82 33.38 6.02 25 6.02 16.62 6.02 9.82 12.82 9.82 21.2 9.82 30.77 4.69 39.06 4.69 39.06L4.69 43.75" stroke="#231F20" fill="none"/><line x1="7.81" y1="43.75" x2="42.19" y2="43.75" stroke="#231F20" fill="none"/><path d="M14.45 21.21C14.45 15.38 19.18 10.65 25.01 10.65" stroke="#231F20" fill="none"/><path d="M29.68 43.75C29.68 46.34 27.58 48.44 24.99 48.44 22.4 48.44 20.3 46.34 20.3 43.75" stroke="#231F20" fill="none"/><line x1="25" y1="1.56" x2="25" y2="5.56" stroke="#231F20" fill="none"/><line x1="7.81" y1="39.06" x2="42.19" y2="39.06" stroke="#231F20" fill="none"/></svg>