<svg viewBox="0 0 50 50" xmlns="http://www.w3.org/2000/svg" xmlns:xlink="http://www.w3.org/1999/xlink" id="GT" overflow="hidden"><defs></defs><path d="M20.31 35.94 20.31 48.44 29.69 48.44 29.69 35.94" stroke="#231F20" stroke-miterlimit="10" fill="none"/><path d="M29.69 14.05 29.69 1.56 20.31 1.56 20.31 14.06" stroke="#231F20" stroke-miterlimit="10" fill="none"/><path d="M33.74 33.75 33.74 16.35C33.74 14.98 32.74 14.06 31.5 14.06L18.5 14.06C17.26 14.06 16.26 15.11 16.26 16.35L16.26 33.75C16.26 34.99 17.26 35.94 18.5 35.94L31.5 35.94C32.74 35.94 33.74 34.99 33.74 33.75L33.74 33.75Z" stroke="#231F20" stroke-miterlimit="10" fill="none"/><path d="M31.25 23.91C29.65 22.31 27.44 21.33 25 21.33 22.56 21.33 20.35 22.32 18.75 23.92" stroke="#231F20" stroke-miterlimit="10" fill="none"/><path d="M29.84 26.28C28.6 25.04 26.88 24.27 24.98 24.27 23.08 24.27 21.34 25.05 20.1 26.31" stroke="#231F20" stroke-miterlimit="10" fill="none"/><path d="M21.53 28.68C22.42 27.79 23.64 27.24 25 27.24 26.36 27.24 27.57 27.78 28.45 28.66" stroke="#231F20" stroke-miterlimit="10" fill="none"/></svg>