<svg viewBox="0 0 50 50" xmlns="http://www.w3.org/2000/svg" xmlns:xlink="http://www.w3.org/1999/xlink" id="GT" overflow="hidden"><defs></defs><path d="M21.88 17.19 13.62 17.19C13.62 17.19 12.93 25.56 12.93 25.56L13.27 25.56C14.11 24.28 15.55 23.44 17.2 23.44 19.79 23.44 21.89 25.54 21.89 28.13 21.89 30.72 19.79 32.82 17.2 32.82 14.61 32.82 12.7 30.9 12.52 28.47" stroke="#231F20" stroke-miterlimit="10" fill="none"/><path d="M31.5 25.32 37.44 25.32C37.44 29.47 36.2 32.81 31.64 32.81 28.34 32.81 25.76 30.3 25.76 25 25.76 19.27 28.64 16.99 31.87 16.99 35.86 16.99 37.44 19.81 37.44 21.41" stroke="#231F20" stroke-miterlimit="10" fill="none"/><line x1="37.44" y1="24.84" x2="37.44" y2="32.81" stroke="#231F20" stroke-miterlimit="10" fill="none"/><path d="M8.43 41.57C4.19 37.33 1.57 31.47 1.57 25 1.57 18.53 4.19 12.67 8.43 8.43" stroke="#231F20" stroke-miterlimit="10" fill="none"/><path d="M12.29 37.71C9.04 34.46 7.03 29.97 7.03 25 7.03 20.03 9.04 15.55 12.29 12.29" stroke="#231F20" stroke-miterlimit="10" fill="none"/><path d="M41.57 41.57C45.81 37.33 48.43 31.47 48.43 25 48.43 18.53 45.81 12.67 41.57 8.43" stroke="#231F20" stroke-miterlimit="10" fill="none"/><path d="M37.71 37.71C40.96 34.46 42.97 29.97 42.97 25 42.97 20.03 40.96 15.55 37.71 12.29" stroke="#231F20" stroke-miterlimit="10" fill="none"/></svg>