<svg viewBox="0 0 50 50" xmlns="http://www.w3.org/2000/svg" xmlns:xlink="http://www.w3.org/1999/xlink" id="GT" overflow="hidden"><defs></defs><path d="M1.56 48.44 1.56 1.56 48.44 1.56 48.44 48.44" stroke="#231F20" stroke-miterlimit="10" fill="none"/><line x1="4.69" y1="48.44" x2="45.31" y2="48.44" stroke="#231F20" stroke-miterlimit="10" fill="none"/><path d="M32.23 39.58C32.08 40.72 30.68 43.36 27.53 43.36 23.81 43.36 21.87 40.64 21.87 36.56 21.87 34.42 22.99 30.48 27.26 30.48 32.68 30.48 32.44 36.67 32.44 36.67L22.03 36.67" stroke="#231F20" stroke-miterlimit="10" fill="none"/><path d="M6.25 34.35 13.83 34.35C13.83 34.35 18.82 34.57 18.82 29.97 18.82 25.37 14.29 25.5 14.29 25.5L6.25 25.5 6.25 43.75" stroke="#231F20" stroke-miterlimit="10" fill="none"/><path d="M10.94 34.35C12.5 34.35 14.3 35.2 15.68 37.08 17.12 39.05 20.05 43.76 20.05 43.76" stroke="#231F20" stroke-miterlimit="10" fill="none"/></svg>