<svg viewBox="0 0 50 50" xmlns="http://www.w3.org/2000/svg" xmlns:xlink="http://www.w3.org/1999/xlink" id="GT" overflow="hidden"><defs></defs><line x1="25" y1="1.56" x2="25" y2="48.44" stroke="#231F20" stroke-miterlimit="10" fill="none"/><line x1="48.44" y1="25" x2="28.12" y2="25" stroke="#231F20" stroke-miterlimit="10" fill="none"/><line x1="25" y1="25" x2="1.56" y2="25" stroke="#231F20" stroke-miterlimit="10" fill="none"/><path d="M45.18 27.34C44.02 37.45 35.43 45.31 25 45.31 13.78 45.31 4.69 36.22 4.69 25 4.69 13.78 13.78 4.69 25 4.69 35.43 4.69 44.02 12.54 45.18 22.66" stroke="#231F20" stroke-miterlimit="10" fill="none"/><path d="M32.46 27.32C31.47 30.5 28.5 32.81 25 32.81 20.69 32.81 17.19 29.31 17.19 25 17.19 20.69 20.69 17.19 25 17.19 28.5 17.19 31.46 19.49 32.45 22.66" stroke="#231F20" stroke-miterlimit="10" fill="none"/></svg>