<svg viewBox="0 0 50 50" xmlns="http://www.w3.org/2000/svg" xmlns:xlink="http://www.w3.org/1999/xlink" id="GT" overflow="hidden"><defs></defs><path d="M34.87 26.95 34.87 34.76M23.15 30.85 46.59 30.85M34.87 5.46 34.87 1.56M34.87 5.47C32.17 5.47 29.99 7.66 29.99 10.35 29.99 13.04 32.18 15.23 34.87 15.23 37.56 15.23 39.75 13.04 39.75 10.35 39.75 7.66 37.56 5.47 34.87 5.47L34.87 5.47ZM21.2 48.44 32.5 14.62M37.25 14.62 48.55 48.44M10.12 44.74 8.27 44.1M7.7 39.77 11.39 41.05M12.67 37.36 10.82 36.72M10.25 32.39 13.94 33.67M15.22 29.98 13.37 29.34M16.49 26.29 12.8 25.01M17.77 22.6 15.92 21.96M19.04 18.91 15.35 17.63M20.32 15.22 18.47 14.58M17.9 10.25 21.59 11.53M22.87 7.84 21.02 7.2M15.41 5.49 2.58 42.58M16.8 1.57 24.18 4.13 8.84 48.42 1.46 45.86" stroke="#231F20" fill="none"/></svg>