<svg viewBox="0 0 50 50" xmlns="http://www.w3.org/2000/svg" xmlns:xlink="http://www.w3.org/1999/xlink" id="GT" overflow="hidden"><defs></defs><path d="M18.96 31.04 18.96 12.71 37.29 12.71 37.29 31.04" stroke="#231F20" stroke-miterlimit="10" fill="none"/><line x1="35.63" y1="31.04" x2="20.63" y2="31.04" stroke="#231F20" stroke-miterlimit="10" fill="none"/><line x1="23.13" y1="9.38" x2="23.13" y2="12.71" stroke="#231F20" stroke-miterlimit="10" fill="none"/><line x1="26.46" y1="9.38" x2="26.46" y2="12.71" stroke="#231F20" stroke-miterlimit="10" fill="none"/><line x1="29.79" y1="9.38" x2="29.79" y2="12.71" stroke="#231F20" stroke-miterlimit="10" fill="none"/><line x1="33.13" y1="9.38" x2="33.13" y2="12.71" stroke="#231F20" stroke-miterlimit="10" fill="none"/><line x1="23.13" y1="31.04" x2="23.13" y2="34.38" stroke="#231F20" stroke-miterlimit="10" fill="none"/><line x1="26.46" y1="31.04" x2="26.46" y2="34.38" stroke="#231F20" stroke-miterlimit="10" fill="none"/><line x1="29.79" y1="31.04" x2="29.79" y2="34.38" stroke="#231F20" stroke-miterlimit="10" fill="none"/><line x1="33.13" y1="31.04" x2="33.13" y2="34.38" stroke="#231F20" stroke-miterlimit="10" fill="none"/><line x1="37.29" y1="26.87" x2="40.63" y2="26.87" stroke="#231F20" stroke-miterlimit="10" fill="none"/><line x1="37.29" y1="23.54" x2="40.63" y2="23.54" stroke="#231F20" stroke-miterlimit="10" fill="none"/><line x1="37.29" y1="20.21" x2="40.63" y2="20.21" stroke="#231F20" stroke-miterlimit="10" fill="none"/><line x1="37.29" y1="16.87" x2="40.63" y2="16.87" stroke="#231F20" stroke-miterlimit="10" fill="none"/><line x1="15.62" y1="26.87" x2="18.96" y2="26.87" stroke="#231F20" stroke-miterlimit="10" fill="none"/><line x1="15.62" y1="23.54" x2="18.96" y2="23.54" stroke="#231F20" stroke-miterlimit="10" fill="none"/><line x1="15.62" y1="20.21" x2="18.96" y2="20.21" stroke="#231F20" stroke-miterlimit="10" fill="none"/><line x1="15.62" y1="16.87" x2="18.96" y2="16.87" stroke="#231F20" stroke-miterlimit="10" fill="none"/><rect x="22.29" y="16.04" width="11.67" height="11.67" stroke="#231F20" stroke-miterlimit="10" fill="none" transform="matrix(6.12323e-17 1 -1 6.12323e-17 50 -6.25)"/><path d="M15.73 48.44 15.73 42.81 11.71 42.81C9.48 42.81 7.8 40.63 7.8 38.39L7.8 32.82 3.98 32.82C2.91 32.82 2.25 31.65 2.81 30.74L7.83 22.47C7.81 22.1 7.8 21.73 7.8 21.35 7.79 10.16 17.09 1.13 28.39 1.58 38.49 1.98 46.76 10.08 47.36 20.17 47.75 26.84 44.84 32.85 40.1 36.71L40.1 48.44" stroke="#231F20" stroke-miterlimit="10" fill="none"/></svg>