<svg viewBox="0 0 50 50" xmlns="http://www.w3.org/2000/svg" xmlns:xlink="http://www.w3.org/1999/xlink" id="GT" overflow="hidden"><defs></defs><path d="M17.95 19.14C17.95 22.83 15.74 25.83 13.02 25.83 10.3 25.83 8.09 22.84 8.09 19.14 8.09 15.44 10.3 12.45 13.02 12.45 15.74 12.45 17.95 15.44 17.95 19.14ZM16.64 25.83 13.01 25.83M38.45 24.17C39.48 22.94 40.13 21.15 40.13 19.15 40.13 15.46 37.92 12.46 35.2 12.46L13.02 12.46M19.89 24.18C17.17 24.18 14.96 27.17 14.96 30.87 14.96 34.57 17.17 37.56 19.89 37.56 22.61 37.56 24.82 34.57 24.82 30.87 24.82 27.17 22.61 24.18 19.89 24.18ZM40.22 37.55 25.16 37.55M43.5 37.55C46.22 37.55 48.43 34.56 48.43 30.86 48.43 27.16 46.22 24.17 43.5 24.17L19.89 24.17M6.49 22.46C3.77 22.46 1.56 25.45 1.56 29.15 1.56 32.85 3.77 35.84 6.49 35.84 9.21 35.84 11.42 32.85 11.42 29.15 11.42 25.45 9.21 22.46 6.49 22.46ZM16.6 35.83 6.49 35.83" stroke="#231F20" stroke-miterlimit="10" fill="none"/></svg>