<svg viewBox="0 0 50 50" xmlns="http://www.w3.org/2000/svg" xmlns:xlink="http://www.w3.org/1999/xlink" id="GT" overflow="hidden"><defs></defs><line x1="19.53" y1="17.97" x2="30.47" y2="17.97" stroke="#231F20" stroke-miterlimit="10" fill="none"/><path d="M25 8.59C19.82 8.59 15.63 12.79 15.63 17.97 15.63 23.15 19.83 27.34 25 27.34 30.17 27.34 34.38 23.14 34.38 17.97 34.38 12.8 30.18 8.59 25 8.59L25 8.59Z" stroke="#231F20" stroke-miterlimit="10" fill="none"/><path d="M11.85 27.34 5.66 43.16 14.45 39.65 18.45 48.44 25 34.37" stroke="#231F20" stroke-miterlimit="10" fill="none"/><path d="M38.15 27.34 44.34 43.16 35.55 39.65 31.55 48.44 25 34.37" stroke="#231F20" stroke-miterlimit="10" fill="none"/><path d="M25 1.56C34.06 1.56 41.41 8.91 41.41 17.97 41.41 27.03 34.06 34.38 25 34.38 15.94 34.38 8.59 27.03 8.59 17.97 8.59 8.91 15.94 1.56 25 1.56L25 1.56Z" stroke="#231F20" stroke-miterlimit="10" fill="none"/></svg>