<svg viewBox="0 0 50 50" xmlns="http://www.w3.org/2000/svg" xmlns:xlink="http://www.w3.org/1999/xlink" id="GT" overflow="hidden"><defs></defs><line x1="23.44" y1="48.44" x2="7.81" y2="48.44" stroke="#231F20" fill="none"/><path d="M7.81 46.09 7.81 40.62 1.56 34.37 1.56 18.75C1.56 18.75 5.41 18.75 6.25 23.44L7.81 29.69 14.06 31.25 16.4 35.94" stroke="#231F20" fill="none"/><path d="M6.25 23.44 6.25 6.25 7.25 4.69 10.33 4.69 11.33 6.25" stroke="#231F20" fill="none"/><path d="M11.33 21.88 11.33 3.12 12.33 1.56 15.41 1.56 16.41 3.12 16.41 21.88" stroke="#231F20" fill="none"/><path d="M21.48 21.31 21.48 5.47 20.48 3.91 17.41 3.91 16.41 5.47" stroke="#231F20" fill="none"/><path d="M33.68 46.09C33.68 46.09 18.92 38.14 18.92 26.91L18.92 26.91C18.88 22.78 22.18 19.57 26.29 19.53 26.29 19.53 26.29 19.53 26.29 19.53 30.4 19.57 33.71 22.77 33.67 26.91L33.67 26.91C33.63 22.78 36.94 19.57 41.05 19.53 41.05 19.53 41.05 19.53 41.05 19.53 45.16 19.57 48.46 22.78 48.42 26.91L48.42 26.91C48.42 38.15 33.66 46.09 33.66 46.09L33.66 46.09Z" stroke="#231F20" fill="none"/><path d="M26.56 19.53 26.56 11.72 25.56 10.16 22.48 10.16 21.48 11.72" stroke="#231F20" fill="none"/><path d="M23.44 46.09 23.44 40.62 24.82 39.24" stroke="#231F20" fill="none"/></svg>