<svg viewBox="0 0 50 50" xmlns="http://www.w3.org/2000/svg" xmlns:xlink="http://www.w3.org/1999/xlink" id="GT" overflow="hidden"><defs></defs><path d="M33.62 46.09 33.62 39.87C38.74 36.89 42.19 31.35 42.19 25 42.19 15.51 34.49 7.81 25 7.81 15.51 7.81 7.81 15.51 7.81 25 7.81 31.36 11.27 36.92 16.4 39.89L16.4 46.1" stroke="#231F20" stroke-miterlimit="10" fill="none"/><line x1="16.41" y1="48.44" x2="33.62" y2="48.44" stroke="#231F20" stroke-miterlimit="10" fill="none"/><line x1="6.25" y1="25" x2="1.56" y2="25" stroke="#231F20" stroke-miterlimit="10" fill="none"/><line x1="48.44" y1="25" x2="43.75" y2="25" stroke="#231F20" stroke-miterlimit="10" fill="none"/><line x1="11.74" y1="38.26" x2="8.43" y2="41.57" stroke="#231F20" stroke-miterlimit="10" fill="none"/><line x1="41.57" y1="8.43" x2="38.26" y2="11.74" stroke="#231F20" stroke-miterlimit="10" fill="none"/><line x1="38.26" y1="38.26" x2="41.57" y2="41.57" stroke="#231F20" stroke-miterlimit="10" fill="none"/><line x1="8.43" y1="8.43" x2="11.74" y2="11.74" stroke="#231F20" stroke-miterlimit="10" fill="none"/><line x1="25" y1="1.56" x2="25" y2="6.25" stroke="#231F20" stroke-miterlimit="10" fill="none"/><path d="M34.9 18.07 21.54 31.93 15.1 25" stroke="#231F20" fill="none"/></svg>