<svg viewBox="0 0 50 50" xmlns="http://www.w3.org/2000/svg" xmlns:xlink="http://www.w3.org/1999/xlink" id="GT" overflow="hidden"><defs></defs><path d="M25 19.17C21.78 19.17 19.17 21.78 19.17 25 19.17 28.22 21.78 30.83 25 30.83 28.22 30.83 30.83 28.22 30.83 25 30.83 21.78 28.22 19.17 25 19.17Z" stroke="#231F20" stroke-miterlimit="10" fill="none"/><path d="M26.9 37.5 23.07 37.5C23.07 37.5 22.25 34.22 22.25 34.22 21.61 34.03 20.99 33.78 20.42 33.46L17.55 35.18 14.83 32.47 16.55 29.61C16.23 29.02 15.97 28.4 15.78 27.74L12.51 26.94 12.51 23.05 15.78 22.25C15.97 21.6 16.23 20.97 16.55 20.38L14.83 17.52 17.55 14.81 20.42 16.53C21 16.22 21.61 15.96 22.25 15.77L23.07 12.5 26.9 12.5C26.9 12.5 27.75 15.77 27.75 15.77 28.39 15.96 29.01 16.21 29.58 16.53L32.45 14.81 35.17 17.52 33.45 20.38C33.77 20.97 34.03 21.59 34.22 22.25L37.49 23.05 37.49 26.94 34.22 27.74C34.03 28.39 33.77 29.02 33.45 29.61L35.17 32.47 32.45 35.18 29.58 33.46C29 33.77 28.39 34.03 27.75 34.22L26.9 37.5Z" stroke="#231F20" stroke-miterlimit="10" fill="none"/><path d="M33.62 46.09 33.62 39.87C38.74 36.89 42.19 31.35 42.19 25 42.19 15.51 34.49 7.81 25 7.81 15.51 7.81 7.81 15.51 7.81 25 7.81 31.36 11.27 36.92 16.4 39.89L16.4 46.1" stroke="#231F20" stroke-miterlimit="10" fill="none"/><line x1="16.41" y1="48.44" x2="33.62" y2="48.44" stroke="#231F20" stroke-miterlimit="10" fill="none"/><line x1="6.25" y1="25" x2="1.56" y2="25" stroke="#231F20" stroke-miterlimit="10" fill="none"/><line x1="48.44" y1="25" x2="43.75" y2="25" stroke="#231F20" stroke-miterlimit="10" fill="none"/><line x1="11.74" y1="38.26" x2="8.43" y2="41.57" stroke="#231F20" stroke-miterlimit="10" fill="none"/><line x1="41.57" y1="8.43" x2="38.26" y2="11.74" stroke="#231F20" stroke-miterlimit="10" fill="none"/><line x1="38.26" y1="38.26" x2="41.57" y2="41.57" stroke="#231F20" stroke-miterlimit="10" fill="none"/><line x1="8.43" y1="8.43" x2="11.74" y2="11.74" stroke="#231F20" stroke-miterlimit="10" fill="none"/><line x1="25" y1="1.56" x2="25" y2="6.25" stroke="#231F20" stroke-miterlimit="10" fill="none"/></svg>