<svg viewBox="0 0 50 50" xmlns="http://www.w3.org/2000/svg" xmlns:xlink="http://www.w3.org/1999/xlink" id="GT" overflow="hidden"><defs></defs><path d="M13.41 11C13.41 12.98 11.81 14.58 9.83 14.58 7.85 14.58 6.25 12.98 6.25 11 6.25 9.02 7.85 7.42 9.83 7.42 11.81 7.42 13.41 9.02 13.41 11L13.41 11Z" stroke="#231F20" fill="none"/><line x1="13.93" y1="27.6" x2="13.93" y2="46.48" stroke="#231F20" fill="none"/><line x1="7.42" y1="27.6" x2="7.42" y2="46.48" stroke="#231F20" fill="none"/><path d="M19.79 3.52 13.93 17.19 12.5 17.19 7.42 17.19 1.56 30.86" stroke="#231F20" fill="none"/><path d="M30.21 3.52 36.07 17.19 37.5 17.19 42.58 17.19 48.44 30.86" stroke="#231F20" fill="none"/><line x1="28.26" y1="27.6" x2="28.26" y2="46.48" stroke="#231F20" fill="none"/><line x1="21.74" y1="27.6" x2="21.74" y2="46.48" stroke="#231F20" fill="none"/><path d="M34.11 30.86 28.26 17.19 21.74 17.19 15.89 30.86" stroke="#231F20" fill="none"/><path d="M28.58 11C28.58 12.98 26.98 14.58 25 14.58 23.02 14.58 21.42 12.98 21.42 11 21.42 9.02 23.02 7.42 25 7.42 26.98 7.42 28.58 9.02 28.58 11L28.58 11Z" stroke="#231F20" fill="none"/><line x1="42.58" y1="27.6" x2="42.58" y2="46.48" stroke="#231F20" fill="none"/><line x1="36.07" y1="27.6" x2="36.07" y2="46.48" stroke="#231F20" fill="none"/><path d="M43.75 11C43.75 12.98 42.15 14.58 40.17 14.58 38.19 14.58 36.59 12.98 36.59 11 36.59 9.02 38.19 7.42 40.17 7.42 42.15 7.42 43.75 9.02 43.75 11L43.75 11Z" stroke="#231F20" fill="none"/></svg>