<svg viewBox="0 0 50 50" xmlns="http://www.w3.org/2000/svg" xmlns:xlink="http://www.w3.org/1999/xlink" id="GT" overflow="hidden"><defs></defs><path d="M29.3 15.23C29.3 17.6 27.38 19.53 25 19.53 22.62 19.53 20.7 17.61 20.7 15.23 20.7 12.85 22.62 10.93 25 10.93 27.38 10.93 29.3 12.85 29.3 15.23L29.3 15.23Z" stroke="#231F20" fill="none"/><path d="M35.16 39.84 28.63 22.65 21.38 22.65 14.86 39.82C10.14 36.58 7.04 31.15 7.04 24.99 7.03 15.08 15.08 7.03 25 7.03L48.44 7.03" stroke="#231F20" stroke-miterlimit="10" fill="none"/><path d="M42.91 12.61 48.44 7.09 42.91 1.56" stroke="#231F20" stroke-miterlimit="10" fill="none"/><path d="M7.09 48.44 1.56 42.91 7.09 37.39" stroke="#231F20" stroke-miterlimit="10" fill="none"/><path d="M1.56 42.97 25 42.97C34.92 42.97 42.97 34.93 42.97 25 42.97 18.83 39.86 13.39 35.13 10.16" stroke="#231F20" stroke-miterlimit="10" fill="none"/></svg>