<svg viewBox="0 0 50 50" xmlns="http://www.w3.org/2000/svg" xmlns:xlink="http://www.w3.org/1999/xlink" id="GT" overflow="hidden"><defs></defs><path d="M8.33 41.67C10.38 42.06 11.4 41.38 11.4 41.38L16.81 48.45 18.09 47.17 16.31 37.98C18.29 36.8 29.54 26.86 29.54 26.86L39.85 46.04 43.02 42.87 37.38 19.25 43.46 13.17C51.11 5.52 47.67 2.35 47.67 2.35 47.67 2.35 44.5-1.09 36.85 6.56L30.77 12.64 7.15 6.98 3.98 10.15 23.16 20.46C23.16 20.46 13.21 31.71 12.04 33.69L2.85 31.91 1.57 33.19 8.64 38.6C8.64 38.6 7.95 39.62 8.35 41.67L8.35 41.67Z" stroke="#231F20" stroke-miterlimit="10" fill="none"/><path d="M16.64 9.21 21.27 4.59 22.46 4.59 25.79 7.93 25.79 9.12 23.92 10.99" stroke="#231F20" stroke-miterlimit="10" fill="none"/><path d="M40.79 33.36 45.41 28.73 45.41 27.54 42.07 24.21 40.88 24.21 39.01 26.08" stroke="#231F20" stroke-miterlimit="10" fill="none"/></svg>