<svg viewBox="0 0 50 50" xmlns="http://www.w3.org/2000/svg" xmlns:xlink="http://www.w3.org/1999/xlink" id="GT" overflow="hidden"><defs></defs><path d="M40.62 25C40.62 33.63 33.62 40.63 24.99 40.63 16.36 40.63 9.36 33.63 9.36 25 9.36 16.37 16.36 9.38 24.99 9.38 33.62 9.38 40.62 16.38 40.62 25ZM24.99 9.38 24.99 40.63M12.21 25 37.78 25M11.27 17.53 38.72 17.53M11.28 32.48 38.72 32.48M23.55 9.45C23.55 9.45 18.25 12.04 17.3 22.16 17.3 22.16 16.92 25.17 17.3 27.84 18.71 37.94 23.55 40.59 23.55 40.59M26.45 40.57C26.45 40.57 31.29 37.92 32.7 27.82 33.07 25.14 32.7 22.14 32.7 22.14 31.75 12.02 26.45 9.43 26.45 9.43" stroke="#231F20" stroke-miterlimit="10" fill="none"/><path d="M1.56 9.86 1.56 1.56 9.86 1.56" stroke="#231F20" fill="none"/><line x1="10.94" y1="10.94" x2="1.56" y2="1.56" stroke="#231F20" stroke-miterlimit="22.93" fill="none"/><path d="M48.44 9.86 48.44 1.56 40.14 1.56" stroke="#231F20" fill="none"/><line x1="39.06" y1="10.94" x2="48.44" y2="1.56" stroke="#231F20" stroke-miterlimit="22.93" fill="none"/><path d="M1.56 40.14 1.56 48.44 9.86 48.44" stroke="#231F20" fill="none"/><line x1="10.94" y1="39.06" x2="1.56" y2="48.44" stroke="#231F20" stroke-miterlimit="22.93" fill="none"/><path d="M48.44 40.14 48.44 48.44 40.14 48.44" stroke="#231F20" fill="none"/><line x1="39.06" y1="39.06" x2="48.44" y2="48.44" stroke="#231F20" stroke-miterlimit="22.93" fill="none"/></svg>