<svg viewBox="0 0 50 50" xmlns="http://www.w3.org/2000/svg" xmlns:xlink="http://www.w3.org/1999/xlink" id="GT" overflow="hidden"><defs></defs><path d="M40.02 22.18 40.02 14.67M32.51 22.18 32.51 18.42M36.27 22.18 36.27 16.55M29.7 47.9 42.84 47.9M36.27 25.94 36.27 44.15M48.47 9.04 24.06 9.04 24.06 25.94 48.47 25.94 48.47 9.04 48.47 9.04Z" stroke="#231F20" fill="none"/><line x1="16.66" y1="26.02" x2="16.66" y2="48.44" stroke="#231F20" fill="none"/><line x1="8.5" y1="26.02" x2="8.5" y2="48.44" stroke="#231F20" fill="none"/><path d="M28.62 16.72 20.21 22.18 16.66 13.79 8.5 13.79 1.53 30.09" stroke="#231F20" fill="none"/><path d="M16.66 5.64C16.66 7.89 14.84 9.72 12.58 9.72 10.32 9.72 8.5 7.9 8.5 5.64 8.5 3.38 10.32 1.56 12.58 1.56 14.84 1.56 16.66 3.38 16.66 5.64L16.66 5.64Z" stroke="#231F20" fill="none"/></svg>