<svg viewBox="0 0 50 50" xmlns="http://www.w3.org/2000/svg" xmlns:xlink="http://www.w3.org/1999/xlink" id="GT" overflow="hidden"><defs></defs><path d="M25 5.47C23.92 5.47 23.05 6.34 23.05 7.42 23.05 8.5 23.92 9.37 25 9.37 26.08 9.37 26.95 8.5 26.95 7.42 26.95 6.34 26.08 5.47 25 5.47L25 5.47Z" stroke="#231F20" stroke-miterlimit="10" fill="none"/><line x1="10.94" y1="44.53" x2="39.06" y2="44.53" stroke="#231F20" stroke-miterlimit="10" fill="none"/><path d="M39.22 48.44 10.8 48.44C8.73 48.44 7.04 46.77 7.04 44.69L7.04 5.32C7.04 3.25 8.72 1.56 10.79 1.56L39.22 1.56C41.29 1.56 42.97 3.24 42.97 5.32L42.97 44.69C42.97 46.76 41.3 48.44 39.22 48.44L39.22 48.44Z" stroke="#231F20" stroke-miterlimit="10" fill="none"/></svg>