<svg viewBox="0 0 50 50" xmlns="http://www.w3.org/2000/svg" xmlns:xlink="http://www.w3.org/1999/xlink" id="GT" overflow="hidden"><defs></defs><line x1="1.56" y1="48.44" x2="1.56" y2="25" stroke="#231F20" fill="none"/><path d="M48.44 25 48.44 1.56 25 1.56 25 10.31 25.98 10.31C26.75 9.21 28.03 8.48 29.47 8.48 31.82 8.48 33.72 10.38 33.72 12.73 33.72 15.08 31.82 16.98 29.47 16.98 28.02 16.98 26.75 16.26 25.98 15.15L25 15.15C25 15.15 25 34.81 25 34.81L24.02 34.81C23.25 33.71 21.97 32.98 20.53 32.98 18.18 32.98 16.28 34.88 16.28 37.23 16.28 39.58 18.18 41.48 20.53 41.48 21.98 41.48 23.25 40.76 24.02 39.65L25 39.65C25 39.65 25 48.4 25 48.4" stroke="#231F20" fill="none"/><path d="M48.44 48.44 48.44 25 39.69 25 39.69 25.98C40.79 26.75 41.52 28.03 41.52 29.47 41.52 31.82 39.62 33.72 37.27 33.72 34.92 33.72 33.02 31.82 33.02 29.47 33.02 28.02 33.74 26.75 34.85 25.98L34.85 25 15.17 25 15.17 24.02C16.27 23.25 17 21.97 17 20.53 17 18.18 15.1 16.28 12.75 16.28 10.4 16.28 8.5 18.18 8.5 20.53 8.5 21.98 9.22 23.25 10.33 24.02L10.33 25C10.33 25 1.58 25 1.58 25L1.58 1.56 25.02 1.56" stroke="#231F20" fill="none"/><line x1="4.69" y1="48.44" x2="45.31" y2="48.44" stroke="#231F20" fill="none"/></svg>