<svg viewBox="0 0 50 50" xmlns="http://www.w3.org/2000/svg" xmlns:xlink="http://www.w3.org/1999/xlink" id="GT" overflow="hidden"><defs></defs><path d="M20.6 45.31 19.84 42.3C18.64 41.94 17.48 41.47 16.4 40.88L11.02 44.1 5.92 39.02 9.15 33.65C8.55 32.55 8.06 31.37 7.7 30.14L1.56 28.65 1.56 21.35 7.7 19.86C8.06 18.63 8.55 17.46 9.15 16.35L5.92 10.98 11.02 5.9 16.4 9.12C17.48 8.53 18.64 8.06 19.84 7.7L21.38 1.56 28.56 1.56C28.56 1.56 30.16 7.7 30.16 7.7 31.36 8.06 32.52 8.53 33.6 9.12L38.98 5.9 44.08 10.98 40.85 16.35C41.45 17.45 41.94 18.63 42.3 19.86L48.44 21.35 48.44 28.65 42.3 30.14C41.94 31.37 41.45 32.54 40.85 33.65L44.08 39.02 38.98 44.1 33.6 40.88C32.52 41.47 31.36 41.94 30.16 42.3L29.37 45.31" stroke="#231F20" stroke-miterlimit="10" fill="none"/><line x1="28.56" y1="48.44" x2="21.38" y2="48.44" stroke="#231F20" stroke-miterlimit="10" fill="none"/><path d="M25 15 25 25 15 25" stroke="#231F20" stroke-miterlimit="10" fill="none"/><path d="M25 12.5C31.9 12.5 37.5 18.1 37.5 25 37.5 31.9 31.9 37.5 25 37.5 18.1 37.5 12.5 31.9 12.5 25" stroke="#231F20" stroke-miterlimit="10" fill="none"/><path d="M19.58 13.74C20.41 13.34 21.3 13.03 22.22 12.82" stroke="#231F20" stroke-miterlimit="10" fill="none"/><path d="M15.23 17.21C15.81 16.48 16.48 15.81 17.21 15.23" stroke="#231F20" stroke-miterlimit="10" fill="none"/><path d="M12.81 22.22C13.02 21.3 13.33 20.41 13.73 19.58" stroke="#231F20" stroke-miterlimit="10" fill="none"/></svg>