<svg viewBox="0 0 50 50" xmlns="http://www.w3.org/2000/svg" xmlns:xlink="http://www.w3.org/1999/xlink" id="GT" overflow="hidden"><defs></defs><path d="M48.44 23.78 48.44 32.55M21.39 20.31 16.52 16.41C15.82 15.78 14.77 15.76 14.05 16.37L12.84 17.41M15.54 19.98 11.84 16.45C11.11 15.76 9.99 15.68 9.18 16.27L7.33 17.62M13.56 23.69 6.25 16.51C5.25 15.49 3.63 15.41 2.54 16.34L2.54 16.34C1.35 17.35 1.25 19.16 2.32 20.3L15.12 33.2 30.91 34.31 41.44 32.56 44.95 32.56M29.16 27.21 16.96 25.34C15.56 25.16 13.41 24.35 13.25 22.91L13.25 22.91C13.08 21.47 14.12 20.16 15.56 19.99L30.91 20.85 41.44 23.6 44.95 23.79" stroke="#231F20" fill="none"/></svg>