<svg viewBox="0 0 50 50" xmlns="http://www.w3.org/2000/svg" xmlns:xlink="http://www.w3.org/1999/xlink" id="GT" overflow="hidden"><defs></defs><path d="M1.56 48.44 1.56 1.56 48.44 1.56 48.44 48.44" stroke="#231F20" stroke-miterlimit="10" fill="none"/><line x1="4.69" y1="48.44" x2="45.31" y2="48.44" stroke="#231F20" stroke-miterlimit="10" fill="none"/><line x1="25" y1="1.56" x2="12.5" y2="14.06" stroke="#231F20" stroke-miterlimit="10" fill="none"/><line x1="20.31" y1="1.56" x2="12.5" y2="9.4" stroke="#231F20" stroke-miterlimit="10" fill="none"/><line x1="25.1" y1="48.44" x2="37.6" y2="35.94" stroke="#231F20" stroke-miterlimit="10" fill="none"/><line x1="29.79" y1="48.44" x2="37.6" y2="40.6" stroke="#231F20" stroke-miterlimit="10" fill="none"/><path d="M35.94 6.25C35.94 8.59 33.6 10.94 31.25 10.94" stroke="#231F20" stroke-miterlimit="10" fill="none"/><path d="M35.94 6.25C35.94 8.59 38.28 10.94 40.63 10.94" stroke="#231F20" stroke-miterlimit="10" fill="none"/><path d="M35.94 15.62C35.94 13.28 38.28 10.93 40.63 10.93" stroke="#231F20" stroke-miterlimit="10" fill="none"/><path d="M35.94 15.62C35.94 13.28 33.6 10.93 31.25 10.93" stroke="#231F20" stroke-miterlimit="10" fill="none"/><path d="M40.63 15.62C40.63 17.96 38.29 20.31 35.94 20.31" stroke="#231F20" stroke-miterlimit="10" fill="none"/><path d="M40.63 15.62C40.63 17.96 42.97 20.31 45.32 20.31" stroke="#231F20" stroke-miterlimit="10" fill="none"/><path d="M40.63 25C40.63 22.66 42.97 20.31 45.32 20.31" stroke="#231F20" stroke-miterlimit="10" fill="none"/><path d="M40.63 25C40.63 22.66 38.29 20.31 35.94 20.31" stroke="#231F20" stroke-miterlimit="10" fill="none"/><path d="M10.94 34.38C10.94 36.72 8.6 39.07 6.25 39.07" stroke="#231F20" stroke-miterlimit="10" fill="none"/><path d="M10.94 34.38C10.94 36.72 13.28 39.07 15.63 39.07" stroke="#231F20" stroke-miterlimit="10" fill="none"/><path d="M10.94 43.75C10.94 41.41 13.28 39.06 15.63 39.06" stroke="#231F20" stroke-miterlimit="10" fill="none"/><path d="M10.94 43.75C10.94 41.41 8.6 39.06 6.25 39.06" stroke="#231F20" stroke-miterlimit="10" fill="none"/></svg>