<svg viewBox="0 0 50 50" xmlns="http://www.w3.org/2000/svg" xmlns:xlink="http://www.w3.org/1999/xlink" id="GT" overflow="hidden"><defs></defs><path d="M8.83 37.2 8.83 32.83 5.01 32.83C3.94 32.83 3.28 31.66 3.84 30.75L8.86 22.48C8.84 22.11 8.83 21.74 8.83 21.36 8.83 10.16 18.13 1.13 29.43 1.58 39.53 1.98 47.8 10.08 48.4 20.17 48.79 26.84 45.88 32.85 41.14 36.71L41.14 48.44" stroke="#231F20" stroke-miterlimit="10" fill="none"/><path d="M16.77 48.44 16.77 42.81 12.75 42.81C11.65 42.81 10.68 42.28 9.98 41.46" stroke="#231F20" stroke-miterlimit="10" fill="none"/><circle cx="4.37" cy="39.7" r="2.81" stroke="#231F20" stroke-miterlimit="10" fill="none"/><path d="M7.39 39.61C7.39 39.61 16.99 39.77 23.58 33.16 24.34 32.4 25.02 31.54 25.64 30.63" stroke="#231F20" stroke-miterlimit="10" fill="none"/><circle cx="28.98" cy="25" r="4.59" stroke="#231F20" stroke-miterlimit="10" fill="none"/></svg>