<svg viewBox="0 0 50 50" xmlns="http://www.w3.org/2000/svg" xmlns:xlink="http://www.w3.org/1999/xlink" id="GT" overflow="hidden"><defs></defs><path d="M22.84 36.86 9.6 13.92C8.84 12.61 9.29 10.94 10.6 10.18L10.6 10.18C11.91 9.42 13.58 9.87 14.34 11.18L18.45 18.3M28.67 25.05 24.3 17.48C23.69 16.42 22.33 16.06 21.27 16.67L18.44 18.3 23.92 27.79M21.31 34.2 13.32 31.06C12.43 30.71 11.42 30.78 10.59 31.26L10.59 31.26C9.08 32.13 8.57 34.06 9.44 35.56L9.61 35.86C9.98 36.49 10.55 36.98 11.24 37.24L28.98 43.84M34.33 23.88 29.96 16.31C29.35 15.25 27.99 14.89 26.93 15.5L24.07 17.15M46.38 33.8 36.53 16.74C35.92 15.68 34.56 15.32 33.5 15.93L30.67 17.56M48.43 39.58 34.04 47.94M9.2 7.76 6.49 3.07M6.78 10.85 1.55 9.45M7.26 14.74 2.57 17.45M16.17 9.69 20.86 6.98M14.48 2.05 13.08 7.28" stroke="#231F20" stroke-miterlimit="10" fill="none"/></svg>